<?xml version="1.0" encoding="UTF-8"?>
<svg width="1200pt" height="1200pt" version="1.1" viewBox="0 0 1200 1200" xmlns="http://www.w3.org/2000/svg">
 <path d="m126.29 885.05h360.18v117.69c-155.76 2.6367-208.19 68.688-210.39 71.562l-11.449 15.051h670.73l-11.449-15.051c-2.1875-2.8633-54.613-68.914-210.36-71.562v-117.69h360.16c36.887 0 66.914-30.012 66.914-66.914l-0.007813-640.57c0-36.887-30.012-66.914-66.914-66.914h-947.41c-36.887 0-66.914 30.012-66.914 66.914v640.57c0 36.887 30.012 66.914 66.914 66.914zm483.09-564.39h413.68v254.19h-413.68zm-218.27 123.42c55.312 0 100.31 45.012 100.31 100.34 0 55.301-45 100.27-100.31 100.27-55.301 0-100.27-44.988-100.27-100.27-0.003906-55.32 44.973-100.34 100.27-100.34zm0 219.36c113.85 0 206.79 90.188 211.74 202.85h-423.46c4.9492-112.65 97.887-202.85 211.73-202.85z" fill="#0940ff"/>
 <path d="m710.07 375.09h212.27v18.75h-212.27z" fill="#0940ff"/>
 <path d="m710.07 449.07h212.27v18.75h-212.27z" fill="#0940ff"/>
</svg>
