<?xml version="1.0" encoding="UTF-8"?>
<svg width="1200pt" height="1200pt" version="1.1" viewBox="0 0 1200 1200" xmlns="http://www.w3.org/2000/svg">
 <path d="m993.75 975h-112.5c-10.367 0-18.75-8.3984-18.75-18.75s8.3828-18.75 18.75-18.75h131.25v-806.25h-112.5v150h37.5c10.367 0 18.75 8.3984 18.75 18.75s-8.3828 18.75-18.75 18.75h-37.5v506.25c0 9.9375-3.957 19.48-10.988 26.512l-112.5 112.5c-7.0312 7.0312-16.574 10.988-26.512 10.988h-562.5v93.75h712.5z" fill="#0940ff"/>
 <path d="m1050 262.5v150h37.5c10.367 0 18.75 8.3984 18.75 18.75s-8.3828 18.75-18.75 18.75h-37.5v506.25c0 9.9375-3.957 19.48-10.988 26.512l-112.5 112.5c-7.0312 7.0312-16.574 10.988-26.512 10.988h-562.5v93.75h712.5l93.75-93.75h-112.5c-10.367 0-18.75-8.3984-18.75-18.75s8.3828-18.75 18.75-18.75h131.25v-806.25z" fill="#0940ff"/>
 <path d="m487.5 290.25c0 20.711-16.789 37.5-37.5 37.5s-37.5-16.789-37.5-37.5 16.789-37.5 37.5-37.5 37.5 16.789 37.5 37.5" fill="#0940ff"/>
 <path d="m487.5 647.25c0 20.711-16.789 37.5-37.5 37.5s-37.5-16.789-37.5-37.5 16.789-37.5 37.5-37.5 37.5 16.789 37.5 37.5" fill="#0940ff"/>
 <path d="m150 292.54v352.43l300 158.83 300-158.83v-352.43l-300-158.83zm487.5 82.461c10.352 0 18.75 8.3984 18.75 18.75s-8.3984 18.75-18.75 18.75-18.75-8.3984-18.75-18.75 8.3984-18.75 18.75-18.75zm-18.75 93.75c0-10.352 8.3828-18.75 18.75-18.75s18.75 8.3984 18.75 18.75v108.56c0 6.9375-3.8242 13.293-9.918 16.539l-122.53 65.289c-5.7578 35.68-36.508 63.113-73.801 63.113-41.363 0-75-33.637-75-75 0-41.363 33.637-75 75-75 31.367 0 58.199 19.387 69.395 46.762l99.355-52.949zm-93.75-178.5c0 41.363-33.637 75-75 75-31.367 0-58.199-19.387-69.395-46.762l-99.355 52.949v116.06c0 10.352-8.3828 18.75-18.75 18.75s-18.75-8.3984-18.75-18.75v-127.31c0-6.9375 3.8242-13.293 9.918-16.539l122.53-65.289c5.7578-35.68 36.508-63.113 73.801-63.113 41.363 0 75 33.637 75 75z" fill="#0940ff"/>
 <path d="m843.75 843.75h-243.75c-10.367 0-18.75-8.3984-18.75-18.75s8.3828-18.75 18.75-18.75h262.5v-618.75h-112.5c-4.9883 0-9.75-1.9688-13.258-5.4922l-50.758-50.758h-85.988c-10.367 0-18.75-8.3984-18.75-18.75s8.3828-18.75 18.75-18.75h93.75c4.9883 0 9.75 1.9688 13.258 5.4922l50.758 50.758h104.74v-150h-712.5l-93.75 93.75h243.75c10.367 0 18.75 8.3984 18.75 18.75s-8.3828 18.75-18.75 18.75h-262.5v618.75h112.5c4.9883 0 9.75 1.9688 13.258 5.4922l50.758 50.758h85.988c10.367 0 18.75 8.3984 18.75 18.75s-8.3828 18.75-18.75 18.75h-93.75c-4.9883 0-9.75-1.9688-13.258-5.4922l-50.758-50.758h-104.74v150h712.5zm-402.52-2.1758-318.75-168.75c-6.1328-3.2422-9.9766-9.6172-9.9766-16.574v-375c0-6.957 3.8438-13.312 9.9766-16.574l318.75-168.75c5.4922-2.9062 12.055-2.9062 17.551 0l318.75 168.75c6.1328 3.2422 9.9766 9.6172 9.9766 16.574v375c0 6.957-3.8438 13.312-9.9766 16.574l-318.75 168.75c-2.7383 1.4609-11.945 3.2617-17.551 0z" fill="#0940ff"/>
</svg>
