<?xml version="1.0" encoding="UTF-8"?>
<svg width="1200pt" height="1200pt" version="1.1" viewBox="0 0 1200 1200" xmlns="http://www.w3.org/2000/svg">
 <path d="m963.28 219.71c48.469 46.312 88.078 101.72 116.06 163.45 30 66.188 46.688 139.6 46.688 216.84 0 145.22-58.875 276.74-154.08 371.9-89.156 89.156-210.14 146.44-344.44 153.37v33.984c0 15.188-12.328 27.516-27.516 27.516s-27.516-12.328-27.516-27.516v-146.39c0-15.188 12.328-27.516 27.516-27.516s27.516 12.328 27.516 27.516v57.281c119.11-6.8906 226.36-57.938 305.53-137.11 85.219-85.219 137.95-202.97 137.95-333.05 0-69.328-14.953-135.1-41.766-194.29-24.188-53.344-57.984-101.39-99.188-141.84-21.891 18.656-50.25 29.906-81.281 29.906-34.641 0-66-14.062-88.688-36.75-22.734-22.734-36.75-54.094-36.75-88.688 0-34.641 14.062-66 36.75-88.688 22.734-22.734 54.094-36.75 88.688-36.75 34.641 0 66 14.062 88.688 36.75 22.688 22.734 36.703 54.094 36.703 88.688 0 18.281-3.9375 35.719-10.969 51.375zm-363.24 292.92c18.797 0 35.766-7.5938 48.094-19.922 12.328-12.328 19.922-29.344 19.922-48.094 0-18.797-7.6406-35.766-19.922-48.094-12.328-12.328-29.297-19.922-48.094-19.922-18.797 0-35.766 7.5938-48.094 19.922-12.328 12.328-19.922 29.297-19.922 48.094s7.6406 35.766 19.922 48.094c12.328 12.328 29.297 19.922 48.094 19.922zm-101.77 1.125c-13.406-19.688-21.281-43.547-21.281-69.141 0-33.984 13.781-64.734 36.047-87 22.266-22.266 53.016-36.047 87-36.047 33.984 0 64.734 13.781 87 36.047 22.266 22.266 36.047 53.016 36.047 87 0 25.641-7.8281 49.406-21.281 69.141 27.75 3.75 52.688 16.688 71.625 35.578 22.641 22.641 36.703 53.906 36.703 88.266v77.203c0 34.359-14.062 65.672-36.703 88.266-22.641 22.641-53.906 36.703-88.266 36.703h-170.26c-34.406 0-65.672-14.062-88.266-36.703-22.641-22.641-36.703-53.906-36.703-88.266v-77.203c0-34.406 14.062-65.672 36.703-88.266 18.938-18.938 43.875-31.875 71.625-35.578zm186.89 53.906h-170.26c-19.219 0-36.703 7.875-49.406 20.578s-20.578 30.188-20.578 49.406v77.203c0 19.172 7.875 36.703 20.578 49.406 12.656 12.656 30.188 20.578 49.406 20.578h170.26c19.219 0 36.703-7.875 49.406-20.578s20.578-30.188 20.578-49.406v-77.203c0-19.172-7.875-36.703-20.578-49.406-12.656-12.656-30.188-20.578-49.406-20.578zm-112.64-526.92c0-15.188 12.328-27.516 27.516-27.516s27.516 12.328 27.516 27.516v146.34c0 15.188-12.328 27.516-27.516 27.516s-27.516-12.328-27.516-27.516v-57.281c-119.11 6.8906-226.36 57.938-305.53 137.16-85.219 85.219-137.95 202.97-137.95 333.05 0 69.328 14.953 135.1 41.766 194.29 24.188 53.344 57.984 101.39 99.188 141.84 21.891-18.656 50.25-29.906 81.281-29.906 34.641 0 66 14.062 88.688 36.75 22.734 22.734 36.75 54.094 36.75 88.688 0 34.641-14.062 66-36.75 88.688-22.734 22.734-54.094 36.75-88.688 36.75-34.641 0-66-14.062-88.688-36.75-22.688-22.734-36.703-54.094-36.703-88.688 0-18.281 3.9375-35.719 10.969-51.375-48.469-46.312-88.078-101.72-116.06-163.45-30-66.188-46.688-139.6-46.688-216.84 0-145.26 58.875-276.74 154.08-371.9 89.156-89.156 210.14-146.44 344.44-153.37v-33.984zm-271.08 1040.8c12.75 12.75 30.375 20.625 49.828 20.625s37.078-7.875 49.828-20.625 20.625-30.328 20.625-49.828c0-19.453-7.875-37.078-20.625-49.828s-30.328-20.625-49.828-20.625c-19.453 0-37.078 7.875-49.828 20.625s-20.625 30.328-20.625 49.828c0 19.453 7.875 37.078 20.625 49.828zm597.19-963c-12.75-12.75-30.375-20.625-49.828-20.625-19.453 0-37.078 7.875-49.828 20.625s-20.625 30.328-20.625 49.828c0 19.453 7.875 37.078 20.625 49.828s30.328 20.625 49.828 20.625c19.453 0 37.078-7.875 49.828-20.625s20.625-30.328 20.625-49.828c0-19.453-7.875-37.078-20.625-49.828z" fill="#0940ff"/>
</svg>
