<svg version="1.1" id="Layer_1" xmlns="http://www.w3.org/2000/svg" xmlns:xlink="http://www.w3.org/1999/xlink" x="0px" y="0px"
	 width="100%" viewBox="0 0 500 500" enable-background="new 0 0 500 500" xml:space="preserve">
<path fill="#1836F4" opacity="1.000000" stroke="none" 
	d="
M219.000000,1.000000 
	C240.020889,1.000000 261.041779,1.000000 282.353638,1.401161 
	C287.674622,2.862946 292.681549,4.052256 297.738770,4.961723 
	C318.683838,8.728354 338.697021,15.375092 357.901581,24.457615 
	C377.355957,33.658298 395.756073,44.666813 411.614655,59.286701 
	C423.702545,70.430382 435.876709,81.710960 446.366058,94.302246 
	C460.807098,111.637131 472.240845,131.087784 481.081665,152.016510 
	C489.876923,172.837219 496.168762,194.271042 499.079010,216.697342 
	C499.187592,217.533905 500.336090,218.235504 501.000000,219.000000 
	C501.000000,240.020889 501.000000,261.041779 500.598816,282.353638 
	C499.137054,287.674622 497.947723,292.681488 497.038269,297.738678 
	C493.271667,318.683746 486.625061,338.696960 477.542511,357.901489 
	C468.341797,377.355927 457.333221,395.756012 442.713409,411.614685 
	C431.569733,423.702576 420.289185,435.876770 407.697876,446.366058 
	C390.362915,460.807037 370.912231,472.240845 349.983490,481.081757 
	C329.162781,489.877014 307.729004,496.168732 285.302765,499.079041 
	C284.466156,499.187592 283.764526,500.336121 283.000000,501.000000 
	C261.979095,501.000000 240.958206,501.000000 219.646408,500.598846 
	C214.325500,499.137054 209.318619,497.947754 204.261429,497.038269 
	C183.316345,493.271698 163.303101,486.625031 144.098511,477.542450 
	C124.644119,468.341766 106.244041,457.333221 90.385422,442.713440 
	C78.297478,431.569763 66.123322,420.289154 55.634003,407.697845 
	C41.192959,390.362946 29.759180,370.912292 20.918324,349.983551 
	C12.123088,329.162811 5.831276,307.729004 2.921011,285.302734 
	C2.812447,284.466125 1.663902,283.764526 1.000001,283.000000 
	C1.000000,261.979095 1.000000,240.958206 1.401148,219.646408 
	C2.862926,214.325500 4.052267,209.318649 4.961718,204.261459 
	C8.728343,183.316391 15.374969,163.303162 24.457495,144.098572 
	C33.658173,124.644165 44.666759,106.244080 59.286572,90.385437 
	C70.430244,78.297485 81.710869,66.123322 94.302185,55.633987 
	C111.637085,41.192936 131.087769,29.759192 152.016525,20.918312 
	C172.837250,12.123071 194.271042,5.831260 216.697342,2.921008 
	C217.533905,2.812448 218.235504,1.663901 219.000000,1.000000 
M94.997391,171.671555 
	C94.237740,177.924835 92.850967,184.175034 92.820259,190.431900 
	C92.621590,230.922424 92.669518,271.414520 92.781868,311.905731 
	C92.795624,316.862915 93.097046,321.956573 94.250786,326.749725 
	C99.425949,348.249603 112.080902,363.522766 133.545090,369.940643 
	C154.842392,376.308594 172.818665,369.547638 187.757034,353.696320 
	C199.865906,340.847473 211.962692,327.987091 224.035172,315.104065 
	C265.037567,271.348663 306.029175,227.583130 347.015839,183.812988 
	C349.857971,180.777832 353.039703,179.128265 357.246338,180.838745 
	C361.487030,182.563095 363.042328,185.658112 363.029236,190.239105 
	C362.912994,230.896896 362.909515,271.555176 362.991180,312.213074 
	C363.000122,316.665100 361.200500,319.469971 357.215759,321.088440 
	C353.269104,322.691467 350.188812,321.438354 347.416901,318.417267 
	C341.448425,311.912384 335.357239,305.520111 329.315369,299.082581 
	C317.814026,286.828125 306.311981,274.574249 295.345337,262.890259 
	C283.739044,274.281830 272.364532,285.445923 260.700928,296.893707 
	C280.223785,317.520386 299.352905,338.638855 319.530975,358.702393 
	C331.242645,370.347595 346.463837,374.563721 362.896637,371.277496 
	C390.380310,365.781250 409.121429,342.605011 409.234100,314.143127 
	C409.400970,271.985962 409.308777,229.827606 409.221863,187.669952 
	C409.214050,183.875153 408.785492,180.005295 407.964600,176.300537 
	C403.082458,154.267181 390.440369,138.641251 368.598083,132.045776 
	C346.904877,125.495323 328.822021,132.625229 313.654053,148.833359 
	C260.844421,205.264542 207.941040,261.607941 155.081177,317.992096 
	C152.262390,320.998840 149.142075,322.814819 144.887619,321.131958 
	C140.648788,319.455322 138.961533,316.444855 138.973221,311.831604 
	C139.075745,271.340363 139.079132,230.848618 138.967758,190.357407 
	C138.955231,185.800354 140.401566,182.654770 144.641159,180.882431 
	C149.074829,179.028992 152.309280,180.915115 155.251175,184.081512 
	C162.846344,192.256271 170.472504,200.402451 178.119873,208.528412 
	C187.797333,218.811493 197.508011,229.063293 206.476044,238.557526 
	C218.110031,227.123276 229.455780,215.972290 241.087143,204.540619 
	C221.736282,184.213974 202.643311,163.297134 182.556915,143.382278 
	C170.531296,131.459351 155.078644,127.264160 138.273788,130.811874 
	C116.031517,135.507492 102.330170,149.759445 94.997391,171.671555 
z"/>
<path fill="#000000" opacity="1.000000" stroke="none" 
	d="
M218.531342,1.000000 
	C218.235504,1.663901 217.533905,2.812448 216.697342,2.921008 
	C194.271042,5.831260 172.837250,12.123071 152.016525,20.918312 
	C131.087769,29.759192 111.637085,41.192936 94.302185,55.633987 
	C81.710869,66.123322 70.430244,78.297485 59.286572,90.385437 
	C44.666759,106.244080 33.658173,124.644165 24.457495,144.098572 
	C15.374969,163.303162 8.728343,183.316391 4.961718,204.261459 
	C4.052267,209.318649 2.862926,214.325500 1.401148,219.177750 
	C1.000000,146.406296 1.000000,73.812584 1.000000,1.000000 
	C73.354080,1.000000 145.708389,1.000000 218.531342,1.000000 
z"/>
<path fill="#000000" opacity="1.000000" stroke="none" 
	d="
M501.000000,218.531342 
	C500.336090,218.235504 499.187592,217.533905 499.079010,216.697342 
	C496.168762,194.271042 489.876923,172.837219 481.081665,152.016510 
	C472.240845,131.087784 460.807098,111.637131 446.366058,94.302246 
	C435.876709,81.710960 423.702545,70.430382 411.614655,59.286701 
	C395.756073,44.666813 377.355957,33.658298 357.901581,24.457615 
	C338.697021,15.375092 318.683838,8.728354 297.738770,4.961723 
	C292.681549,4.052256 287.674622,2.862946 282.822266,1.401161 
	C355.593689,1.000000 428.187408,1.000000 501.000000,1.000000 
	C501.000000,73.354080 501.000000,145.708389 501.000000,218.531342 
z"/>
<path fill="#000000" opacity="1.000000" stroke="none" 
	d="
M1.000001,283.468658 
	C1.663902,283.764526 2.812447,284.466125 2.921011,285.302734 
	C5.831276,307.729004 12.123088,329.162811 20.918324,349.983551 
	C29.759180,370.912292 41.192959,390.362946 55.634003,407.697845 
	C66.123322,420.289154 78.297478,431.569763 90.385422,442.713440 
	C106.244041,457.333221 124.644119,468.341766 144.098511,477.542450 
	C163.303101,486.625031 183.316345,493.271698 204.261429,497.038269 
	C209.318619,497.947754 214.325500,499.137054 219.177750,500.598846 
	C146.406296,501.000000 73.812607,501.000000 1.000000,501.000000 
	C1.000000,428.645905 1.000000,356.291626 1.000001,283.468658 
z"/>
<path fill="#000000" opacity="1.000000" stroke="none" 
	d="
M283.468658,501.000000 
	C283.764526,500.336121 284.466156,499.187592 285.302765,499.079041 
	C307.729004,496.168732 329.162781,489.877014 349.983490,481.081757 
	C370.912231,472.240845 390.362915,460.807037 407.697876,446.366058 
	C420.289185,435.876770 431.569733,423.702576 442.713409,411.614685 
	C457.333221,395.756012 468.341797,377.355927 477.542511,357.901489 
	C486.625061,338.696960 493.271667,318.683746 497.038269,297.738678 
	C497.947723,292.681488 499.137054,287.674622 500.598816,282.822296 
	C501.000000,355.593689 501.000000,428.187408 501.000000,501.000000 
	C428.645905,501.000000 356.291626,501.000000 283.468658,501.000000 
z"/>
<path fill="#FEC60A" opacity="1.000000" stroke="none" 
	d="
M95.097626,171.279358 
	C102.330170,149.759445 116.031517,135.507492 138.273788,130.811874 
	C155.078644,127.264160 170.531296,131.459351 182.556915,143.382278 
	C202.643311,163.297134 221.736282,184.213974 241.087143,204.540619 
	C229.455780,215.972290 218.110031,227.123276 206.476044,238.557526 
	C197.508011,229.063293 187.797333,218.811493 178.119873,208.528412 
	C170.472504,200.402451 162.846344,192.256271 155.251175,184.081512 
	C152.309280,180.915115 149.074829,179.028992 144.641159,180.882431 
	C140.401566,182.654770 138.955231,185.800354 138.967758,190.357407 
	C139.079132,230.848618 139.075745,271.340363 138.973221,311.831604 
	C138.961533,316.444855 140.648788,319.455322 144.887619,321.131958 
	C149.142075,322.814819 152.262390,320.998840 155.081177,317.992096 
	C207.941040,261.607941 260.844421,205.264542 313.654053,148.833359 
	C328.822021,132.625229 346.904877,125.495323 368.598083,132.045776 
	C390.440369,138.641251 403.082458,154.267181 407.964600,176.300537 
	C408.785492,180.005295 409.214050,183.875153 409.221863,187.669952 
	C409.308777,229.827606 409.400970,271.985962 409.234100,314.143127 
	C409.121429,342.605011 390.380310,365.781250 362.896637,371.277496 
	C346.463837,374.563721 331.242645,370.347595 319.530975,358.702393 
	C299.352905,338.638855 280.223785,317.520386 260.700928,296.893707 
	C272.364532,285.445923 283.739044,274.281830 295.345337,262.890259 
	C306.311981,274.574249 317.814026,286.828125 329.315369,299.082581 
	C335.357239,305.520111 341.448425,311.912384 347.416901,318.417267 
	C350.188812,321.438354 353.269104,322.691467 357.215759,321.088440 
	C361.200500,319.469971 363.000122,316.665100 362.991180,312.213074 
	C362.909515,271.555176 362.912994,230.896896 363.029236,190.239105 
	C363.042328,185.658112 361.487030,182.563095 357.246338,180.838745 
	C353.039703,179.128265 349.857971,180.777832 347.015839,183.812988 
	C306.029175,227.583130 265.037567,271.348663 224.035172,315.104065 
	C211.962692,327.987091 199.865906,340.847473 187.757034,353.696320 
	C172.818665,369.547638 154.842392,376.308594 133.545090,369.940643 
	C112.080902,363.522766 99.425949,348.249603 94.250786,326.749725 
	C93.097046,321.956573 92.795624,316.862915 92.781868,311.905731 
	C92.669518,271.414520 92.621590,230.922424 92.820259,190.431900 
	C92.850967,184.175034 94.237740,177.924835 95.097626,171.279358 
z"/>
</svg>