<?xml version="1.0" encoding="UTF-8"?>
<svg width="1200pt" height="1200pt" version="1.1" viewBox="0 0 1200 1200" xmlns="http://www.w3.org/2000/svg">
 <path d="m268.88 497.81 76.875-153.94c-11.812-4.3125-22.875-9.9375-33.375-16.688l-76.875 153.94c11.812 4.3125 22.875 9.9375 33.375 16.688z" fill="#702af4"/>
 <path d="m855.19 216.75-255.38-38.625c-0.75 12.75-2.625 25.125-5.8125 37.125l252 38.062c1.6875-12.562 4.875-24.938 9.1875-36.562z" fill="#702af4"/>
 <path d="m1050 657.19v-189.38c-6.1875 0.5625-12.375 0.9375-18.75 0.9375s-12.562-0.375-18.75-0.9375v189.38c6.1875-0.5625 12.375-0.9375 18.75-0.9375s12.562 0.375 18.75 0.9375z" fill="#702af4"/>
 <path d="m862.88 926.06c-5.625-11.062-9.9375-22.688-13.125-35.062l-156.38 57.938c5.625 11.062 9.9375 22.688 13.125 35.062z" fill="#702af4"/>
 <path d="m283.5 804.38 99.375 104.62c8.25-9.5625 17.438-18.188 27.375-25.875l-99.375-104.62c-8.25 9.5625-17.438 18.188-27.375 25.875z" fill="#702af4"/>
 <path d="m349.88 608.25c3.375 12 5.25 24.375 6 37.125l63.188-10.125c-3-12-5.0625-24.562-5.8125-37.125z" fill="#702af4"/>
 <path d="m546.56 375.38-28.312-51.938c-10.312 7.125-21.375 13.312-33 18l28.5 52.125c10.312-6.9375 21.375-13.125 32.812-18.188z" fill="#702af4"/>
 <path d="m834.38 690c-6 10.875-12.938 21.375-20.812 31.125l52.125 34.688c5.8125-11.062 12.75-21.562 20.625-31.125z" fill="#702af4"/>
 <path d="m564.94 794.25-12.938 51.562c12.562 1.6875 24.75 4.6875 36.375 9l12.938-51.562c-12.375-1.875-24.562-4.875-36.375-9z" fill="#702af4"/>
 <path d="m866.81 371.44-67.125 54.188c8.8125 9 16.688 18.75 23.812 29.25l64.688-52.312c-8.0625-9.5625-15.188-20.062-21.375-31.125z" fill="#702af4"/>
 <path d="m450 581.25c0 103.31 84.188 187.5 187.5 187.5s187.5-84.188 187.5-187.5-84.188-187.5-187.5-187.5-187.5 84.188-187.5 187.5zm187.5-104.25c28.688 0 52.125 23.25 52.125 52.125s-23.25 52.125-52.125 52.125-52.125-23.25-52.125-52.125 23.25-52.125 52.125-52.125zm-83.25 166.69c0-22.875 18.75-41.625 41.625-41.625h83.25c22.875 0 41.625 18.75 41.625 41.625v62.062c-23.812 15.938-52.5 25.312-83.25 25.312s-59.438-9.375-83.25-25.312z" fill="#702af4"/>
 <path d="m168.75 806.25c82.688 0 150-67.312 150-150s-67.312-150-150-150-150 67.312-150 150 67.312 150 150 150zm0-243.75c25.875 0 46.875 21 46.875 46.875s-21 46.875-46.875 46.875-46.875-21-46.875-46.875 21-46.875 46.875-46.875zm-75 150c0-20.625 16.875-37.5 37.5-37.5h75c20.625 0 37.5 16.875 37.5 37.5v27.375c-19.875 17.812-46.125 28.875-75 28.875s-55.125-11.062-75-28.875z" fill="#702af4"/>
 <path d="m412.5 18.75c-82.688 0-150 67.312-150 150s67.312 150 150 150 150-67.312 150-150-67.312-150-150-150zm0 56.25c25.875 0 46.875 21 46.875 46.875s-21 46.875-46.875 46.875-46.875-21-46.875-46.875 21-46.875 46.875-46.875zm75 177.38c-19.875 17.812-46.125 28.875-75 28.875s-55.125-11.062-75-28.875v-27.375c0-20.625 16.875-37.5 37.5-37.5h75c20.625 0 37.5 16.875 37.5 37.5z" fill="#702af4"/>
 <path d="m1031.2 131.25c-82.688 0-150 67.312-150 150s67.312 150 150 150 150-67.312 150-150-67.312-150-150-150zm0 56.25c25.875 0 46.875 21 46.875 46.875s-21 46.875-46.875 46.875-46.875-21-46.875-46.875 21-46.875 46.875-46.875zm75 177.38c-19.875 17.812-46.125 28.875-75 28.875s-55.125-11.062-75-28.875v-27.375c0-20.625 16.875-37.5 37.5-37.5h75c20.625 0 37.5 16.875 37.5 37.5z" fill="#702af4"/>
 <path d="m675 1031.2c0-82.688-67.312-150-150-150s-150 67.312-150 150 67.312 150 150 150 150-67.312 150-150zm-150-93.75c25.875 0 46.875 21 46.875 46.875s-21 46.875-46.875 46.875-46.875-21-46.875-46.875 21-46.875 46.875-46.875zm75 177.38c-19.875 17.812-46.125 28.875-75 28.875s-55.125-11.062-75-28.875v-27.375c0-20.625 16.875-37.5 37.5-37.5h75c20.625 0 37.5 16.875 37.5 37.5z" fill="#702af4"/>
 <path d="m1031.2 693.75c-82.688 0-150 67.312-150 150s67.312 150 150 150 150-67.312 150-150-67.312-150-150-150zm0 56.25c25.875 0 46.875 21 46.875 46.875s-21 46.875-46.875 46.875-46.875-21-46.875-46.875 21-46.875 46.875-46.875zm75 177.38c-19.875 17.812-46.125 28.875-75 28.875s-55.125-11.062-75-28.875v-27.375c0-20.625 16.875-37.5 37.5-37.5h75c20.625 0 37.5 16.875 37.5 37.5z" fill="#702af4"/>
</svg>
