<?xml version="1.0" encoding="UTF-8"?>
<svg width="1200pt" height="1200pt" version="1.1" viewBox="0 0 1200 1200" xmlns="http://www.w3.org/2000/svg">
 <path d="m357.71 105.65c36.637-18 75.629-32.047 116.35-41.57 40.508-9.4805 82.703-14.512 125.95-14.512 64.617 0 126.72 11.184 184.41 31.691 57.828 20.551 111.22 50.543 158.3 88.059l148.46-39.77c7.043-1.8867 12.57 2.6367 14.781 8.4492l44.051 164.37c1.6992 6.3906-2.0977 12.969-8.4883 14.668l-60.051 16.086c21.035 37.855 37.742 78.547 49.438 121.31 12.715 46.504 19.531 95.344 19.531 145.57 0 44.504-5.3594 87.945-15.422 129.63-9.1133 37.785-22.141 74.043-38.566 108.29 8.0781 3.0469 15.336 7.7969 21.344 13.777 10.898 10.926 17.66 25.938 17.66 42.391v140.27c0 16.469-6.7617 31.465-17.602 42.336-10.926 10.898-25.922 17.66-42.391 17.66h-140.27c-16.457 0-31.465-6.7617-42.336-17.602-2.1562-2.1562-4.1367-4.4805-5.9531-6.9297-40.707 24.887-84.941 44.688-131.74 58.41-49.281 14.441-101.38 22.211-155.16 22.211-41.781 0-82.672-4.7188-122.06-13.633-37.629-8.5312-73.828-20.906-108.09-36.695-34 31.238-79.387 50.328-129.23 50.328-52.738 0-100.55-21.402-135.1-55.957s-55.957-82.332-55.957-135.1c0-49.82 19.09-95.23 50.328-129.23-15.789-34.258-28.164-70.441-36.695-108.07-8.9141-39.387-13.633-80.293-13.633-122.07 0-45.285 5.5273-89.434 15.902-131.73 10.164-41.473 25.113-81.184 44.18-118.46-2.5781-6.6758-3.9961-13.934-3.9961-21.5v-162.67c0-16.457 6.7617-31.465 17.602-42.336 10.926-10.898 25.938-17.66 42.391-17.66h192.06zm585.22 471.63c0 11.535-4.6758 21.984-12.23 29.539-7.5547 7.5547-18 12.23-29.539 12.23-11.535 0-21.984-4.6758-29.539-12.23-4.8203-4.8203-8.4609-10.828-10.473-17.531h-35.277c-6.6172 0-12.004-5.3867-12.004-12.004 0-6.6172 5.3867-12.004 12.004-12.004h35.277c2.0117-6.7031 5.6562-12.715 10.473-17.531 7.5547-7.5547 18-12.23 29.539-12.23 11.535 0 21.984 4.6758 29.539 12.23 7.5547 7.5547 12.23 18 12.23 29.539zm-29.211 12.559c3.2031-3.2031 5.2031-7.6523 5.2031-12.559 0-4.9023-2-9.3555-5.2031-12.559s-7.6523-5.2031-12.559-5.2031c-4.9023 0-9.3555 2-12.559 5.2031s-5.2031 7.6523-5.2031 12.559c0 4.9023 2 9.3555 5.2031 12.559s7.6523 5.2031 12.559 5.2031c4.9023 0 9.3555-2 12.559-5.2031zm-313.71 330.37c-11.535 0-21.984-4.6758-29.539-12.23-7.5547-7.5547-12.23-18-12.23-29.539 0-11.535 4.6758-21.984 12.23-29.539 4.8203-4.8203 10.828-8.4609 17.531-10.473v-35.277c0-6.6172 5.3867-12.004 12.004-12.004s12.004 5.3867 12.004 12.004v35.277c6.7031 2.0117 12.715 5.6562 17.531 10.473 7.5547 7.5547 12.23 18 12.23 29.539 0 11.535-4.6758 21.984-12.23 29.539-7.5547 7.5547-18 12.23-29.539 12.23zm-12.559-29.211c3.2031 3.2031 7.6523 5.2031 12.559 5.2031 4.9023 0 9.3555-2 12.559-5.2031s5.2031-7.6523 5.2031-12.559c0-4.9023-2-9.3555-5.2031-12.559s-7.6523-5.2031-12.559-5.2031c-4.9023 0-9.3555 2-12.559 5.2031-3.2031 3.2031-5.2031 7.6523-5.2031 12.559 0 4.9023 2 9.3555 5.2031 12.559zm-330.37-313.71c0-11.535 4.6758-21.984 12.23-29.539 7.5547-7.5547 18-12.23 29.539-12.23 11.535 0 21.984 4.6758 29.539 12.23 4.8203 4.8203 8.4609 10.828 10.473 17.531h35.277c6.6172 0 12.004 5.3867 12.004 12.004s-5.3867 12.004-12.004 12.004h-35.277c-2.0117 6.7031-5.6562 12.715-10.473 17.531-7.5547 7.5547-18 12.23-29.539 12.23-11.535 0-21.984-4.6758-29.539-12.23-7.5547-7.5547-12.23-18-12.23-29.539zm29.211-12.559c-3.2031 3.2031-5.2031 7.6523-5.2031 12.559 0 4.9023 2 9.3555 5.2031 12.559 3.2031 3.2031 7.6523 5.2031 12.559 5.2031 4.9023 0 9.3555-2 12.559-5.2031s5.2031-7.6523 5.2031-12.559c0-4.9023-2-9.3555-5.2031-12.559-3.2031-3.2031-7.6523-5.2031-12.559-5.2031-4.9023 0-9.3555 2-12.559 5.2031zm313.71-330.37c11.535 0 21.984 4.6758 29.539 12.23 7.5547 7.5547 12.23 18 12.23 29.539 0 11.535-4.6758 21.984-12.23 29.539-4.8203 4.8203-10.828 8.4609-17.531 10.473v35.277c0 6.6172-5.3867 12.004-12.004 12.004-6.6172 0-12.004-5.3867-12.004-12.004v-35.277c-6.7031-2.0117-12.715-5.6562-17.531-10.473-7.5547-7.5547-12.23-18-12.23-29.539 0-11.535 4.6758-21.984 12.23-29.539 7.5547-7.5547 18-12.23 29.539-12.23zm12.559 29.211c-3.2031-3.2031-7.6523-5.2031-12.559-5.2031-4.9023 0-9.3555 2-12.559 5.2031-3.2031 3.2031-5.2031 7.6523-5.2031 12.559 0 4.9023 2 9.3555 5.2031 12.559s7.6523 5.2031 12.559 5.2031c4.9023 0 9.3555-2 12.559-5.2031s5.2031-7.6523 5.2031-12.559c0-4.9023-2-9.3555-5.2031-12.559zm417.19 602.58c11.535 0 21.984 4.6758 29.539 12.23 7.5547 7.5547 12.23 18 12.23 29.539 0 11.535-4.6758 21.984-12.23 29.539-7.5547 7.5547-18 12.23-29.539 12.23-11.535 0-21.984-4.6758-29.539-12.23-7.5547-7.5547-12.23-18-12.23-29.539 0-11.535 4.6758-21.984 12.23-29.539 7.5547-7.5547 18-12.23 29.539-12.23zm12.559 29.211c-3.2031-3.2031-7.6523-5.2031-12.559-5.2031-4.9023 0-9.3555 2-12.559 5.2031s-5.2031 7.6523-5.2031 12.559c0 4.9023 2 9.3555 5.2031 12.559 3.2031 3.2031 7.6523 5.2031 12.559 5.2031 4.9023 0 9.3555-2 12.559-5.2031 3.2031-3.2031 5.2031-7.6523 5.2031-12.559 0-4.9023-2-9.3555-5.2031-12.559zm-143.11 78.082 57.473-45.184c4.7617-3.7422 11.48-3.2891 15.703 0.79297l62.277 53.262 30.148-30.148c4.3359-4.3359 11.227-4.6484 15.93-0.93359l30.715 20.41v-77.555c0-9.8945-4.0547-18.922-10.547-25.441-6.5195-6.4922-15.535-10.547-25.441-10.547h-140.27c-9.8945 0-18.922 4.0547-25.441 10.547-6.4922 6.5195-10.547 15.547-10.547 25.441v79.355zm212.25 26.945-36.582-24.32-31.055 31.055c-4.4062 4.3516-11.496 4.6914-16.27 0.59375l-63.766-54.555-64.574 50.77v30.43c0 9.9062 4.0547 18.922 10.547 25.441 6.5195 6.4922 15.547 10.547 25.441 10.547h140.27c9.9062 0 18.922-4.0547 25.441-10.547 6.4922-6.5195 10.547-15.535 10.547-25.441v-33.973zm-39.77-166.3c17.262-34.727 30.812-71.605 40.098-110.07 9.5664-39.613 14.656-81.172 14.656-124.02 0-48.375-6.4766-95.074-18.566-139.28-11.691-42.746-28.699-83.41-50.258-121.2l-32.203 8.6172c20.891 35.207 37.547 73.262 49.238 113.39 12.812 44.035 19.715 90.539 19.715 138.47 0 45.141-6.1211 89.078-17.574 130.91-9.9219 36.242-23.867 70.84-41.285 103.18h36.184zm-63.582 0c19.602-34.086 35.051-70.852 45.637-109.48 10.812-39.531 16.609-81.328 16.609-124.61 0-45.863-6.5352-90.113-18.668-131.81-11.75-40.367-28.801-78.52-50.301-113.6l-126.06 33.773c-6.2773 1.6719-12.953-2.0391-14.668-8.4883l-43.965-164.16c-1.7305-6.4336 2.3945-13.367 8.7578-14.969l16.227-4.3516c-32.16-19.305-66.812-34.879-103.34-46.105-43.625-13.395-90.102-20.637-138.33-20.637-25.258 0-49.848 1.9414-73.547 5.668-19.957 3.1172-39.602 7.5703-58.762 13.168 1.6445 5.457 2.5234 11.195 2.5234 17.148v162.67c0 16.441-6.7461 31.449-17.617 42.32-10.941 10.926-25.953 17.676-42.379 17.676h-30.656l-31.523 49.336c-3.543 5.5547-10.941 7.1992-16.496 3.6562-1.5156-0.96484-2.75-2.2266-3.6562-3.6562l-31.523-49.336h-116.55c-15.676 31.066-28.035 64.133-36.539 98.703l-0.11328 0.52344c-8.8164 35.914-13.508 73.602-13.508 112.46 0 34.215 3.6406 67.578 10.547 99.609 6.2344 28.941 15.137 56.906 26.434 83.582 22.762-9.582 47.766-14.867 73.984-14.867 52.766 0 100.55 21.402 135.1 55.957 34.555 34.555 55.957 82.359 55.957 135.1 0 26.219-5.2852 51.223-14.855 73.984 26.688 11.281 54.668 20.195 83.621 26.434 32.016 6.8867 65.352 10.547 99.555 10.547 51.535 0 101.16-8.293 147.53-23.598 46.148-15.223 89.164-37.391 127.66-65.211v-87.449c0-16.457 6.7617-31.465 17.602-42.336 10.926-10.898 25.938-17.66 42.391-17.66zm-132.9 176.6c-36.863 24.762-77.246 44.688-120.15 58.848-48.77 16.086-100.93 24.816-155.04 24.816-35.789 0-70.781-3.8398-104.52-11.113-30.941-6.6484-60.832-16.258-89.32-28.402-5.5117 9.5391-11.82 18.523-18.82 26.93 30.543 13.508 62.617 24.18 95.84 31.707 37.434 8.4766 76.535 12.953 116.82 12.953 51.633 0 101.45-7.3984 148.41-21.16 45.637-13.379 88.738-32.824 128.34-57.332-1.0352-4.3672-1.5586-8.9141-1.5586-13.578zm-730.04-216.84c-12.16-28.473-21.742-58.367-28.391-89.277-7.2695-33.762-11.113-68.77-11.113-104.57 0-40.637 4.9609-80.234 14.273-118.19l0.15625-0.56641c8.0781-32.77 19.461-64.277 33.719-94.109-10.914-2.2109-20.793-7.4141-28.699-14.684-15.406 32.133-27.695 66.133-36.383 101.55-9.8789 40.254-15.137 82.488-15.137 126 0 40.281 4.4805 79.398 12.953 116.83 7.5273 33.207 18.227 65.297 31.719 95.824 8.3906-7 17.375-13.309 26.902-18.809zm213.59 47.41c-30.219-30.219-72-48.926-118.12-48.926s-87.902 18.707-118.12 48.926-48.926 72-48.926 118.12c0 46.121 18.707 87.902 48.926 118.12s72 48.926 118.12 48.926 87.902-18.707 118.12-48.926 48.926-72 48.926-118.12c0-46.121-18.707-87.902-48.926-118.12zm-43.727 128.48-102.67 59.273c-5.7109 3.2734-13.039 1.3047-16.312-4.4062-1.0781-1.8711-1.5859-3.9258-1.5859-5.9531l-0.058594-118.55c0-6.6172 5.3867-12.004 12.004-12.004 2.5781 0 4.9766 0.82031 6.9297 2.2109l101.7 58.707c5.7109 3.2734 7.6836 10.602 4.4062 16.312-1.0898 1.8984-2.6367 3.3867-4.4062 4.4062zm-63.242 8.9141 33.391-19.277-66.77-38.551v77.102l33.379-19.277zm-11.156-154.09c37.234 0 70.938 15.094 95.328 39.488 24.391 24.391 39.488 58.098 39.488 95.328 0 37.234-15.094 70.938-39.488 95.328-24.391 24.391-58.098 39.488-95.328 39.488-37.234 0-70.938-15.094-95.328-39.488-24.391-24.391-39.488-58.098-39.488-95.328 0-37.234 15.094-70.938 39.488-95.328 24.391-24.391 58.098-39.488 95.328-39.488zm78.352 56.465c-20.043-20.043-47.766-32.457-78.352-32.457-30.586 0-58.309 12.414-78.352 32.457-20.043 20.043-32.457 47.766-32.457 78.352 0 30.586 12.414 58.309 32.457 78.352s47.766 32.457 78.352 32.457c30.586 0 58.309-12.414 78.352-32.457 20.043-20.043 32.457-47.766 32.457-78.352 0-30.586-12.414-58.309-32.457-78.352zm557.73-533.82 57.047-90.625-88.426-26.52zm80.832-83.496-58.906 93.586 207.19-55.516-97.824-51.59-15.719 16.668c-2.9922 3.3867-7.7812 4.9336-12.387 3.5586l-22.352-6.7031zm67.48-31.594 94.734 49.961-31.395-117.16zm-152.96-19.051c35.871 10.758 71.73 21.531 107.61 32.273l77.059-81.75-184.66 49.48zm41.57-35.957c-41.441-30.785-87.621-55.629-137.18-73.262-55.105-19.586-114.51-30.273-176.45-30.273-41.527 0-81.895 4.7891-120.5 13.832-21.219 4.9609-41.953 11.211-62.109 18.668 13.676 1.6445 25.938 7.9219 35.207 17.191 1.1914 1.1914 2.3398 2.4375 3.4297 3.7266 21.586-6.5625 43.895-11.707 66.77-15.277 25.355-3.9961 51.207-6.0664 77.203-6.0664 50.473 0 99.328 7.6406 145.36 21.77 45.781 14.074 88.77 34.641 127.79 60.547zm-503.41-47.453h-244.57c-9.8945 0-18.922 4.0547-25.441 10.547-6.4922 6.5195-10.547 15.547-10.547 25.441v162.67c0 9.8633 4.0664 18.879 10.586 25.398 6.5195 6.5195 15.535 10.586 25.398 10.586h137.23c3.9414 0.070312 7.8086 2.0117 10.078 5.5859l25.016 39.148 24.406-38.195c2-3.8828 6.0391-6.5352 10.688-6.5352h37.164c9.9062 0 18.922-4.0547 25.398-10.531 6.5352-6.5352 10.586-15.547 10.586-25.457v-162.67c0-9.8633-4.0664-18.879-10.586-25.398-6.5195-6.5195-15.535-10.586-25.398-10.586zm-214.78 188.25c-6.6172 0-12.004-5.3867-12.004-12.004 0-6.6172 5.3867-12.004 12.004-12.004h183.87c6.6172 0 12.004 5.3867 12.004 12.004 0 6.6172-5.3867 12.004-12.004 12.004zm0-35.121c-6.6172 0-12.004-5.3867-12.004-12.004 0-6.6172 5.3867-12.004 12.004-12.004h183.87c6.6172 0 12.004 5.3867 12.004 12.004 0 6.6172-5.3867 12.004-12.004 12.004zm0-35.121c-6.6172 0-12.004-5.3867-12.004-12.004s5.3867-12.004 12.004-12.004h183.87c6.6172 0 12.004 5.3867 12.004 12.004s-5.3867 12.004-12.004 12.004zm36.625-35.148c-6.6172 0-12.004-5.3867-12.004-12.004 0-6.6172 5.3867-12.004 12.004-12.004h148.37c6.6172 0 12.004 5.3867 12.004 12.004 0 6.6172-5.3867 12.004-12.004 12.004zm-36.625 0.027343c-6.6172 0-12.004-5.3867-12.004-12.004 0-6.6172 5.3867-12.004 12.004-12.004h6.4062c6.6172 0 12.004 5.3867 12.004 12.004 0 6.6172-5.3867 12.004-12.004 12.004zm370.34 528.27c-20.453-16.016-37.547-35.602-50.555-57.559-16.711-28.203-26.789-60.352-28.742-93.969h-53.094c2.9336 41.344 20.934 78.547 48.5 106.12 22.52 22.52 51.492 38.664 83.891 45.41zm-79.285-175.54c1.9414-33.59 12.02-65.75 28.73-93.953 13.023-21.953 30.117-41.543 50.555-57.57-32.387 6.7461-61.371 22.891-83.891 45.41-27.566 27.566-45.566 64.773-48.5 106.12h53.109zm147.74-151.53c20.453 16.031 37.531 35.617 50.555 57.57 16.723 28.203 26.789 60.352 28.742 93.953h53.094c-2.9336-41.344-20.934-78.547-48.5-106.12-22.52-22.52-51.508-38.664-83.891-45.41zm79.301 175.54c-1.957 33.605-12.02 65.75-28.742 93.953-13.023 21.953-30.117 41.543-50.555 57.57 32.387-6.7461 61.371-22.891 83.891-45.41 27.566-27.566 45.566-64.773 48.5-106.12h-53.094zm-177.71 81.781c13.082 22.055 30.785 41.414 52.172 56.496v-138.27h-77.457c1.9141 29.297 10.742 57.246 25.285 81.781zm76.184 56.496c21.402-15.094 39.074-34.426 52.172-56.508 14.543-24.52 23.387-52.484 25.285-81.766h-77.457zm77.457-162.29c-1.8984-29.281-10.742-57.246-25.285-81.766-13.082-22.066-30.785-41.414-52.172-56.508v138.27zm-101.47-138.27c-21.402 15.094-39.074 34.426-52.172 56.508-14.527 24.52-23.387 52.484-25.285 81.766h77.457zm12.004-40.777c52.766 0 100.55 21.402 135.1 55.957 34.555 34.555 55.957 82.359 55.957 135.1 0 52.766-21.402 100.55-55.957 135.1-34.555 34.555-82.332 55.957-135.1 55.957-52.738 0-100.55-21.402-135.1-55.957-34.555-34.555-55.957-82.332-55.957-135.1 0-52.738 21.402-100.55 55.957-135.1 34.555-34.555 82.359-55.957 135.1-55.957z" fill="#0940ff"/>
</svg>
