<?xml version="1.0" encoding="UTF-8"?>
<svg width="1200pt" height="1200pt" version="1.1" viewBox="0 0 1200 1200" xmlns="http://www.w3.org/2000/svg">
 <path d="m339.48 225.11c0 15.977-12.352 28.93-27.59 28.93-15.234 0-27.586-12.953-27.586-28.93 0-15.98 12.352-28.934 27.586-28.934 15.238 0 27.59 12.953 27.59 28.934" fill="#702af4"/>
 <path d="m1142 673.08-0.011719-195.05c0.046875-1.9336 0.71875-47.699-32.004-82.836-23.867-25.633-58.367-38.617-102.57-38.617h-31.355c-10.621 0-19.234 9.0352-19.234 20.172s8.6172 20.172 19.234 20.172h31.355c33.215 0 58.367 8.7852 74.711 26.113 21.457 22.727 21.406 53.855 21.395 54.516v195.86c0.011719 0.3125 0.058594 31.43-21.395 54.156-16.355 17.328-41.484 26.113-74.711 26.113h-133.61l2.293 119.05-80.016-119.05h-162.38c-33.215 0-58.355-8.7852-74.711-26.113-21.457-22.727-21.406-53.844-21.395-54.504v-30.684h34.703c44.207 0 78.719-12.996 102.59-38.629 32.699-35.125 32.039-80.879 32.004-82.332v-124.51h102.65c10.621 0 19.234-9.0352 19.234-20.172s-8.6172-20.172-19.234-20.172h-102.65v-30.191c0.046875-1.9336 0.71875-47.699-32.004-82.836-23.867-25.633-58.367-38.617-102.57-38.617l-175.83 0.003906c-10.621 0-19.234 9.0352-19.234 20.172 0 11.137 8.6172 20.172 19.234 20.172h175.82c33.215 0 58.367 8.7852 74.711 26.113 21.457 22.727 21.406 53.855 21.395 54.516v30.672h-34.703c-44.195 0-78.707 12.996-102.56 38.617-32.711 35.137-32.051 80.902-32.016 82.355v124.49h-89.184l-80.016 119.06 2.293-119.06-133.63-0.003906c-33.215 0-58.367-8.7852-74.711-26.113-21.457-22.715-21.406-53.832-21.395-54.492l-0.003906-195.99c0-0.30078-0.10938-30.949 21.07-53.688 16.344-17.555 41.594-26.461 75.035-26.461h31.355c10.621 0 19.234-9.0352 19.234-20.172s-8.6172-20.172-19.234-20.172h-31.355c-44.207 0-78.707 12.996-102.57 38.617-32.711 35.137-32.051 80.902-32.004 82.355l0.011719 195.05c-0.046875 1.9336-0.70703 47.699 32.004 82.824 23.867 25.621 58.367 38.617 102.57 38.617h94.344l-4.043 209.79 140.99-209.79h69.227v30.203c-0.046875 1.9336-0.70703 47.699 32.004 82.836 23.855 25.621 58.367 38.617 102.56 38.617h142.41l140.99 209.79-4.0156-209.8h94.344c44.195 0 78.707-12.996 102.56-38.617 32.715-35.133 32.055-80.891 32.02-82.344zm-604.4-196.01c0-0.30078-0.097656-30.938 21.086-53.676 16.344-17.555 41.594-26.461 75.023-26.461h34.703v124.99c0 0.30078 0.10938 30.938-21.059 53.664-16.344 17.555-41.605 26.461-75.047 26.461h-34.703z" fill="#702af4"/>
 <path d="m921.7 376.75c0 15.977-12.352 28.93-27.586 28.93-15.238 0-27.59-12.953-27.59-28.93 0-15.98 12.352-28.934 27.59-28.934 15.234 0 27.586 12.953 27.586 28.934" fill="#702af4"/>
</svg>
