<?xml version="1.0" encoding="UTF-8"?>
<svg width="1200pt" height="1200pt" version="1.1" viewBox="0 0 1200 1200" xmlns="http://www.w3.org/2000/svg">
 <path d="m136.97 661.26c-21.188 9.0938-39.703 23.578-53.766 41.859-25.875-26.672-41.812-63.047-41.812-103.12 0-81.75 66.234-147.98 147.98-147.98s147.98 66.234 147.98 147.98c0 40.078-15.938 76.453-41.859 103.12-14.016-18.281-32.578-32.766-53.766-41.859 17.906-15.328 28.219-37.594 28.219-61.266 0-44.531-36.094-80.625-80.625-80.625s-80.625 36.094-80.625 80.625c0.09375 23.625 10.359 45.891 28.266 61.266zm873.61-209.26c-81.75 0-147.98 66.234-147.98 147.98 0 40.078 15.938 76.453 41.859 103.12 14.016-18.281 32.578-32.766 53.766-41.859-17.906-15.375-28.219-37.594-28.219-61.266 0-44.531 36.094-80.625 80.625-80.625s80.625 36.094 80.625 80.625c0 23.625-10.266 45.891-28.219 61.266 21.141 9.0938 39.703 23.578 53.766 41.859 25.875-26.672 41.859-63 41.859-103.12-0.046875-81.75-66.328-147.98-148.08-147.98zm-812.9-46.781c8.7656 4.6875 19.688 1.3594 24.375-7.4062 39.75-74.203 101.58-135.98 175.78-175.78 8.7656-4.6875 12.094-15.609 7.4062-24.375-4.6875-8.7656-15.609-12.094-24.375-7.4062-81.047 43.453-147.19 109.55-190.6 190.6-4.6875 8.7656-1.4062 19.688 7.4062 24.375zm384.24 72.938v272.44c-1.6875 0-3.375-0.46875-4.9688-1.4062-52.312-30.422-118.31-33.938-198.05-10.453v-274.08c82.266-24.188 149.95-19.688 203.02 13.5zm-51.328 179.02c-16.266-3.375-32.859-5.0625-49.594-5.3906-16.5-0.32812-33.047 0.75-49.5 2.9062-9.8906 1.2656-16.828 10.312-15.562 20.203s10.312 16.828 20.203 15.562c14.812-1.9219 29.578-2.9062 44.25-2.625 14.438 0.28125 28.781 1.7812 42.938 4.6875 9.75 2.0156 19.266-4.3125 21.281-14.062s-4.2656-19.266-14.016-21.281zm-114.61-36.797c1.3594 9.8906 10.5 16.781 20.344 15.422 15.047-2.0625 29.859-3.0469 44.344-2.6719 14.391 0.32812 28.594 1.9688 42.422 5.0625 9.7031 2.1562 19.312-3.9844 21.469-13.734 2.1562-9.7031-3.9844-19.312-13.734-21.469-16.172-3.6094-32.672-5.5312-49.359-5.9062-16.641-0.375-33.375 0.65625-50.109 2.9531-9.8438 1.3594-16.734 10.453-15.375 20.344zm115.22-71.625c-16.031-3.8906-32.484-5.9531-49.266-6.4219-16.734-0.46875-33.609 0.60938-50.625 3.0938-9.8906 1.4062-16.734 10.547-15.328 20.438s10.547 16.734 20.438 15.328c15.328-2.2031 30.188-3.1875 44.578-2.8125 14.297 0.42188 28.219 2.1562 41.766 5.4375 9.7031 2.3438 19.406-3.6094 21.75-13.266 2.3438-9.75-3.6094-19.5-13.312-21.797zm-100.03-58.031c-9.8906 1.5-16.688 10.688-15.188 20.578s10.688 16.688 20.578 15.188c15.562-2.3438 30.469-3.375 44.719-2.9062 14.156 0.46875 27.938 2.3438 41.203 5.8125 9.6562 2.4844 19.5-3.2812 21.984-12.938s-3.2812-19.5-12.938-21.984c-15.891-4.125-32.25-6.375-49.125-6.9375-16.828-0.5625-33.891 0.5625-51.234 3.1875zm-286.18 109.27c0 24.516 19.875 44.438 44.438 44.438s44.438-19.875 44.438-44.438c0-24.516-19.875-44.438-44.438-44.438s-44.438 19.922-44.438 44.438zm122.44 125.76c-18.469-24.516-47.156-39.141-78.047-39.141-30.844 0-59.578 14.578-78.047 39.141 22.641 14.062 49.406 22.219 78.047 22.219 28.641 0 55.406-8.1094 78.047-22.219zm377.02-536.34c0-24.516-19.875-44.438-44.438-44.438-24.516 0-44.438 19.875-44.438 44.438s19.875 44.438 44.438 44.438c24.516-0.046875 44.438-19.922 44.438-44.438zm157.74 32.625c74.203 39.797 135.98 101.58 175.78 175.78 4.6875 8.7656 15.609 12.094 24.375 7.4062 8.7656-4.6875 12.094-15.609 7.4062-24.375-43.453-81.047-109.55-147.14-190.6-190.6-8.7656-4.6875-19.688-1.3594-24.375 7.4062s-1.3594 19.688 7.4062 24.375zm-124.13 93.141c-18.469-24.516-47.156-39.141-78.047-39.141-30.844 0-59.578 14.578-78.047 39.141 22.641 14.062 49.406 22.219 78.047 22.219 28.641 0 55.359-8.1562 78.047-22.219zm-130.45-64.547c-17.906-15.375-28.219-37.594-28.219-61.266 0-44.531 36.094-80.625 80.625-80.625s80.625 36.094 80.625 80.625c0 23.672-10.266 45.891-28.219 61.266 21.141 9.0938 39.703 23.578 53.766 41.859 25.875-26.672 41.859-63 41.859-103.12 0-81.75-66.234-147.98-147.98-147.98s-147.98 66.234-147.98 147.98c0 40.078 15.938 76.453 41.859 103.12 13.922-18.281 32.484-32.766 53.672-41.859zm-149.76 727.31c-74.203-39.797-135.98-101.58-175.78-175.78-4.6875-8.7656-15.609-12.094-24.375-7.4062s-12.094 15.609-7.4062 24.375c43.453 81.047 109.55 147.14 190.6 190.6 8.7656 4.6875 19.688 1.3594 24.375-7.4062 4.6875-8.7656 1.3594-19.688-7.4062-24.375zm202.18-115.36c-81.75 0-147.98 66.234-147.98 147.98 0 40.078 15.938 76.453 41.859 103.12 14.016-18.281 32.578-32.766 53.766-41.859-17.906-15.375-28.219-37.594-28.219-61.266 0-44.531 36.094-80.625 80.625-80.625s80.625 36.094 80.625 80.625c0 23.625-10.266 45.891-28.219 61.266 21.141 9.0938 39.703 23.578 53.766 41.859 25.875-26.672 41.859-63 41.859-103.12-0.09375-81.703-66.328-147.98-148.08-147.98zm455.02-262.6c0-24.516-19.875-44.438-44.438-44.438-24.516 0-44.438 19.875-44.438 44.438 0 24.516 19.875 44.438 44.438 44.438s44.438-19.922 44.438-44.438zm-44.391 86.672c-30.844 0-59.578 14.578-78.047 39.141 22.641 14.062 49.406 22.219 78.047 22.219s55.359-8.1562 78.047-22.219c-18.516-24.562-47.203-39.141-78.047-39.141zm-387.56 62.578c-1.5938 0.9375-3.2812 1.4062-4.9688 1.4062v-272.48c53.062-33.188 120.74-37.688 203.02-13.453v274.08c-79.734-23.484-145.74-20.016-198.05 10.453zm32.531-232.78c2.4844 9.6562 12.328 15.422 21.984 12.938 13.266-3.4688 27-5.3438 41.203-5.8125 14.25-0.46875 29.156 0.51562 44.719 2.9062 9.8906 1.5 19.078-5.2969 20.578-15.188s-5.3438-19.078-15.188-20.578c-17.344-2.625-34.406-3.7031-51.234-3.1875-16.875 0.5625-33.234 2.8125-49.125 6.9375-9.6562 2.5312-15.469 12.375-12.938 21.984zm-0.09375 54.047c2.3438 9.6562 12.094 15.609 21.75 13.266 13.547-3.2812 27.469-5.0156 41.766-5.4375 14.344-0.42188 29.25 0.5625 44.578 2.8125 9.8906 1.4062 19.031-5.4844 20.438-15.328 1.4062-9.8906-5.4844-19.031-15.328-20.438-17.016-2.4844-33.938-3.5625-50.625-3.0938-16.781 0.46875-33.234 2.5781-49.266 6.4219-9.7031 2.3438-15.656 12.094-13.312 21.797zm113.11 29.531c-16.734-2.2969-33.469-3.375-50.109-2.9531-16.688 0.42188-33.188 2.2969-49.359 5.9062-9.7031 2.1562-15.844 11.766-13.734 21.469 2.1562 9.7031 11.766 15.844 21.469 13.734 13.828-3.0938 28.031-4.7344 42.422-5.0625 14.484-0.32812 29.297 0.60938 44.344 2.6719 9.8906 1.3594 18.984-5.5312 20.344-15.422 1.4062-9.8906-5.4844-18.984-15.375-20.344zm-113.25 78.422c2.0156 9.75 11.531 16.031 21.281 14.062 14.156-2.9062 28.5-4.4062 42.938-4.6875 14.625-0.28125 29.438 0.65625 44.25 2.625 9.8906 1.2656 18.938-5.6719 20.203-15.562s-5.6719-18.938-15.562-20.203c-16.453-2.1562-33-3.1875-49.5-2.9062-16.734 0.32812-33.328 2.0156-49.594 5.3906-9.7031 2.0156-15.984 11.531-14.016 21.281zm-55.359 418.78c-30.844 0-59.578 14.578-78.047 39.141 22.641 14.062 49.406 22.219 78.047 22.219s55.359-8.1562 78.047-22.219c-18.469-24.562-47.203-39.141-78.047-39.141zm44.438-86.672c0-24.516-19.875-44.438-44.438-44.438-24.516 0-44.438 19.875-44.438 44.438 0 24.516 19.875 44.438 44.438 44.438s44.438-19.875 44.438-44.438zm357.89-215.81c-8.7656-4.6875-19.688-1.3594-24.375 7.4062-39.797 74.203-101.58 135.98-175.78 175.78-8.7656 4.6875-12.094 15.609-7.4062 24.375s15.609 12.094 24.375 7.4062c81.047-43.453 147.14-109.55 190.6-190.6 4.6875-8.7656 1.4062-19.688-7.4062-24.375z" fill="#0940ff"/>
</svg>
