<?xml version="1.0" encoding="UTF-8"?>
<svg width="1200pt" height="1200pt" version="1.1" viewBox="0 0 1200 1200" xmlns="http://www.w3.org/2000/svg">
 <path d="m682.08 403.69c-9.375-32.297-24-59.906-44.391-79.922-34.547-14.953-72.469-23.625-112.31-24.656 60.844 20.016 114.14 57.047 156.71 104.58zm27.891 29.953c19.688-2.9062 38.203-4.9219 54.938-6.0469-22.406-32.016-50.906-59.391-83.766-80.625 13.828 24.844 23.344 54.375 28.828 86.672zm82.594 290.76c-3 1.2656-5.9531 2.3906-9.0469 3.375-1.3125 7.9688-3 15.844-4.9219 23.719 5.1562-8.7188 9.8438-17.766 13.969-27.094zm-5.9062-20.297c5.8594-2.5312 11.625-5.4375 17.344-8.9062 27.188-81.75 17.672-172.97-26.062-247.31-17.203 0.75-36.75 2.5312-57.75 5.4375 47.906 73.078 74.625 163.36 66.469 250.78zm-109.22-0.60938c28.688 11.109 58.312 14.531 87.281 7.7812 9.5625-77.625-10.922-158.39-49.5-225.84 3 72.844-10.969 150.24-37.781 218.06zm-185.44-210.19c63.375-25.969 131.48-44.438 191.34-55.266-47.531-60.844-112.31-107.16-187.97-125.53-35.25 51.656-23.625 125.58-3.375 180.79zm96.938 399.79c-19.406-1.875-38.531-6.1875-57.094-12.281-19.922 9.375-41.156 15.094-63.094 16.688 39.844 6.5625 81 5.1094 120.19-4.4062zm-31.406-26.766c105.89 26.438 182.16-26.625 203.53-132.66-30.703 5.4375-61.781 1.0312-91.781-10.688-24.375 54.75-61.031 109.69-111.75 143.34zm55.875-220.22c-10.078-10.031-26.578-10.031-36.656 0-10.031 10.078-10.031 26.578 0 36.656 10.078 10.031 26.578 10.031 36.656 0 10.031-10.125 10.031-26.578 0-36.656zm24.75 37.219c6.5156 4.125 13.219 7.9688 20.062 11.484 28.594-72.656 42.844-159.52 34.359-237.19-59.906 10.359-128.76 28.828-192.66 55.125 17.25 40.266 41.578 78.656 70.594 111.56 18.469-11.344 42.469-8.5312 57.797 6.8438 13.688 13.734 17.578 34.5 9.8438 52.172zm-312.74-67.734c-11.812-11.906-31.359-11.906-43.219 0-11.812 11.812-11.812 31.359 0 43.219 11.906 11.812 31.406 11.812 43.219 0 11.906-11.859 11.906-31.406 0-43.219zm7.6406 64.172c42 79.5 112.59 147.37 197.44 178.22 55.312-29.344 94.688-87.562 119.58-143.63-8.4375-4.2188-16.594-9-24.562-14.062-18.562 15.844-46.406 14.672-63.656-2.625-15.562-15.469-18.188-40.031-6.375-58.5-30.891-34.781-56.625-75.375-75-117.98-47.812 21.281-97.125 49.172-134.9 85.641 17.109 23.297 11.203 56.625-12.516 72.938zm-40.359 7.9219c-13.969 45.562-2.8125 89.906 20.391 130.55 72 56.625 136.03 68.438 189.94 51.375-81.281-36-148.4-103.17-189.42-181.64-6.9375 1.2656-14.062 1.2656-20.906-0.28125zm766.4-191.02c-42.188-42.281-114.66-12.188-114.66 47.438 0 59.672 72.469 89.719 114.66 47.531 26.156-26.25 26.156-68.812 0-94.969zm0.51562 121.5c-29.156 18.938-66.891 18.938-96.094 0-30.891 10.031-54.656 30.469-55.594 61.219l-0.60938 19.266c0 13.875 10.969 24.938 24.984 24.938h158.53c14.25 0 25.453-11.484 24.984-25.781l-0.60938-18.375c-0.98438-30.797-24.703-51.234-55.594-61.266zm-169.69 260.9c-42.188-42.188-114.61-12.188-114.61 47.531 0 59.672 72.422 89.719 114.61 47.531 26.25-26.297 26.25-68.812 0-95.062zm0.51562 121.6c-29.109 18.938-66.844 18.938-96 0-30.891 9.9375-54.656 30.422-55.688 61.219l-0.5625 19.219c0 13.969 10.969 24.984 24.984 24.984h158.44c14.25 0 25.5-11.484 25.031-25.781l-0.60938-18.375c-0.89062-30.844-24.609-51.328-55.594-61.266zm-0.51562-887.02c-42.188-42.188-114.61-12.188-114.61 47.531 0 59.672 72.422 89.719 114.61 47.531 26.25-26.297 26.25-68.812 0-95.062zm0.51562 121.55c-29.109 18.938-66.844 18.938-96 0-30.891 9.9375-54.656 30.422-55.688 61.219l-0.5625 19.266c0 13.875 10.969 24.938 24.984 24.938h158.44c14.25 0 25.5-11.484 25.031-25.781l-0.60938-18.375c-0.89062-30.797-24.609-51.234-55.594-61.266zm-442.97-41.25c-13.594 2.3438-17.203-18.469-3.5156-20.766 24.469-4.2188 49.219-6.375 74.062-6.375h174.37c13.875 0 13.875 21.094 0 21.094h-174.37c-23.672-0.046875-47.25 2.0156-70.547 6.0469zm244.97 819.37c13.875 0 13.875 21.094 0 21.094h-174.37c-238.64 0-433.82-195.28-433.82-433.82 0-59.25 12.188-117.8 35.812-172.13 5.5781-12.656 24.844-4.2188 19.312 8.4375-68.297 156.74-31.406 336.56 87.234 455.16 74.812 74.812 177.98 121.22 291.47 121.22zm-367.18-798.74c-27.844-27.844-72.938-27.844-100.78 0-27.75 27.844-27.75 72.938 0 100.78 27.844 27.75 72.938 27.75 100.78 0 27.844-27.844 27.844-72.938 0-100.78zm-50.344-41.906c50.953 0 92.25 41.344 92.25 92.25 0 51-41.344 92.344-92.25 92.344-51 0-92.344-41.344-92.344-92.344 0-50.953 41.297-92.25 92.344-92.25zm53.953-38.062c-6.7031-2.8125-13.781-5.1094-21-6.8438-4.4531-0.9375-7.9688-4.6406-8.3438-9.4688l-2.1562-24.281h-45l-2.1562 24.281c-0.32812 4.4531-3.5156 8.2969-8.0625 9.375-12.938 3.0469-29.906 9.6562-40.734 16.734-3.8438 2.7188-9.0938 2.625-12.891-0.5625l-18.75-15.75-31.734 31.875 15.75 18.75c2.8594 3.375 3.3281 8.2969 0.84375 12.281-7.4062 11.906-13.875 27.094-17.016 40.969-0.9375 4.4531-4.6406 7.9688-9.4688 8.3438l-24.281 2.1562v45l24.281 2.1562c4.4531 0.32813 8.2969 3.5156 9.375 8.0625 3.0469 12.938 9.6562 29.906 16.734 40.734 2.7188 3.8438 2.625 9.0938-0.5625 12.891l-15.75 18.75 31.828 31.828 18.75-15.75c3.375-2.8594 8.3438-3.3281 12.281-0.84375 11.953 7.4062 27.188 13.875 41.062 17.016 4.4062 0.9375 7.875 4.6406 8.2969 9.4688l2.1562 24.281h45l2.1562-24.281c0.375-4.4531 3.5156-8.2969 8.0625-9.375 12.938-3.0469 29.906-9.6562 40.734-16.734 3.8438-2.7188 9.0938-2.625 12.891 0.5625l18.75 15.75 31.828-31.828-15.75-18.75c-2.8125-3.375-3.3281-8.3438-0.84375-12.281 7.4062-11.953 13.875-27.188 17.016-41.062 0.9375-4.4062 4.6406-7.875 9.4688-8.2969l24.281-2.1562v-45l-24.281-2.1562c-4.4531-0.375-8.2969-3.5156-9.375-8.0625-3.0469-12.938-9.6562-29.906-16.734-40.734-2.7188-3.8438-2.625-9.0938 0.5625-12.891l15.75-18.75-31.828-31.828-18.75 15.75c-3.375 2.8125-8.3438 3.3281-12.281 0.84375-6.375-3.8906-13.078-7.3594-20.109-10.172zm-75.891 322.4c-54.422 100.5-46.922 223.5 18.609 316.5-8.4375-31.5-8.3438-63.375 1.7344-94.594-29.812-21.844-27.656-67.312 4.2188-86.203-10.781-43.594-14.531-90.938-6.5156-135.74h-18.047zm177.14-144.94c-3.3281 10.828-7.6875 21.328-13.312 31.219l17.203 20.531c3.5156 4.2188 3.1875 10.359-0.60938 14.156l-45.469 45.516c-4.0312 4.0312-10.594 4.125-14.672 0.1875l-20.062-16.781c-10.594 5.9062-21.75 10.594-33.422 13.875l-2.25 26.578c-0.5625 5.5312-5.1094 9.6562-10.594 9.6562h-14.531c-8.1562 42.047-4.9688 87.422 4.9688 128.9 11.25-1.4062 22.688 0.9375 32.484 6.7031 39.938-38.906 91.875-68.531 142.78-91.031-22.219-59.812-33.375-136.13 0.65625-193.69-13.922-2.3906-29.484 0-43.172 4.1719z" fill="#702af4"/>
</svg>
