<?xml version="1.0" encoding="UTF-8"?>
<svg width="1200pt" height="1200pt" version="1.1" viewBox="0 0 1200 1200" xmlns="http://www.w3.org/2000/svg">
 <path d="m338.95 260.67c-8.1797 6.3047-19.922 4.7812-26.25-3.3984-6.3281-8.1797-4.7812-19.922 3.3984-26.25 166.55-128.3 400.08-128.3 566.65 0 8.1797 6.3047 9.6328 18.07 3.3281 26.25-6.3047 8.1797-18 9.7031-26.18 3.3984-153.02-117.84-367.69-117.84-520.95 0zm628.83 121.85c-5.25-8.9062-2.25-20.32 6.6328-25.641 8.8359-5.25 20.32-2.25 25.57 6.6328 27.961 47.18 47.438 99.328 57.211 153.87 1.8047 10.172-4.9219 19.875-15.07 21.656-10.172 1.8516-19.875-4.9219-21.656-15.07-9.0469-50.227-26.859-97.734-52.688-141.45zm52.617 293.53c1.8516-10.172 11.555-16.945 21.727-15.07 10.172 1.8047 16.875 11.484 15.07 21.656-9.7734 54.469-29.297 106.69-57.211 153.87-5.25 8.9062-16.734 11.883-25.57 6.5859-8.9062-5.25-11.883-16.734-6.6328-25.57 25.828-43.758 43.641-91.242 52.617-141.47zm-160.52 263.27c8.1797-6.3047 19.875-4.7812 26.18 3.3984 6.3047 8.1797 4.8516 19.875-3.3281 26.18-166.55 128.37-400.08 128.37-566.65 0-8.1797-6.3047-9.7031-18-3.3984-26.18 6.3047-8.1797 18.07-9.7031 26.25-3.3984 153.02 117.87 367.69 117.87 520.95 0zm-628.88-121.83c5.3203 8.8359 2.3203 20.32-6.5859 25.57-8.9062 5.3203-20.391 2.3203-25.641-6.5859-27.914-47.18-47.367-99.328-57.141-153.87-1.8516-10.172 4.9219-19.875 15.07-21.656 10.172-1.8516 19.875 4.9219 21.656 15.07 9.0469 50.18 26.859 97.734 52.641 141.47zm-52.617-293.53c-1.8047 10.172-11.484 16.945-21.656 15.07-10.172-1.8047-16.945-11.484-15.07-21.656 9.7734-54.539 29.227-106.69 57.141-153.87 5.25-8.9062 16.734-11.883 25.641-6.6328 8.9062 5.3203 11.883 16.734 6.5859 25.641-25.875 43.711-43.617 91.219-52.641 141.45zm421.01 4.8516c39.328 0 71.227 31.898 71.227 71.156 0 39.328-31.898 71.227-71.227 71.227-39.258 0-71.156-31.898-71.156-71.227 0-39.258 31.875-71.156 71.156-71.156zm23.836 47.367c-21.188-21.188-57.539-6.1172-57.539 23.789 0 29.953 36.352 45.047 57.539 23.859 13.172-13.172 13.172-34.5 0-47.648zm12.305-83.578c-9.7734-3.2578-15.023-13.875-11.766-23.648 3.2578-9.8438 13.875-15.07 23.648-11.836 44.719 15.023 79.852 50.156 94.805 94.875 3.3281 9.7734-1.9922 20.32-11.766 23.648-9.7734 3.2578-20.391-1.9922-23.648-11.836-11.156-33.258-37.992-60.047-71.273-71.203zm71.273 143.51c3.2578-9.7734 13.875-15.023 23.648-11.766 9.7734 3.2578 15.07 13.875 11.766 23.648-14.953 44.719-50.086 79.852-94.805 94.875-9.7734 3.2578-20.391-2.0625-23.648-11.836-3.2578-9.7734 1.9922-20.391 11.766-23.648 33.281-11.156 60.047-37.992 71.273-71.273zm-143.55 71.297c9.8438 3.2578 15.07 13.875 11.836 23.648-3.3281 9.7734-13.875 15.07-23.648 11.766-44.719-14.953-79.852-50.086-94.875-94.805-3.2578-9.7734 1.9922-20.391 11.836-23.648 9.7734-3.2578 20.391 1.9922 23.648 11.766 11.133 33.258 37.898 60.094 71.203 71.273zm-71.227-143.58c-3.2578 9.8438-13.875 15.07-23.648 11.836-9.8438-3.3281-15.094-13.875-11.836-23.648 15.023-44.719 50.156-79.852 94.875-94.875 9.7734-3.2578 20.32 1.9922 23.648 11.836 3.2578 9.7734-1.9922 20.391-11.836 23.648-33.281 11.133-60.047 37.922-71.203 71.203zm88.688-234.33h37.336c21.258 0 38.602 17.273 38.602 38.531l0.14062 15.281c0.14063 0.14063 0.32813 0.21094 0.65625 0.25781 18.867 5.0391 37.008 12.633 53.953 22.383 4.3828 0.79687 13.617-21.727 38.789-21.727 9.8906 0 19.805 3.7266 27.305 11.297l26.367 26.367c15.07 15.023 15.07 39.469 0 54.539l-10.688 10.828c0 0.1875 0.070313 0.46875 0.21094 0.72656 9.7734 16.875 17.414 35.156 22.383 53.953 2.6016 3.7969 24.984-5.7891 42.844 12.094 6.9844 6.9844 11.297 16.617 11.297 27.234v37.336c0 21.258-17.273 38.602-38.531 38.602v-0.070313h-14.555v0.070313l-1.0547 0.79687c-2.3203 8.6484-5.8359 19.195-9.4453 27.703h0.070313c-3.7969 8.9766-8.1094 17.742-13.031 26.25-0.79688 4.3828 21.797 13.617 21.797 38.789 0 9.8906-3.7969 19.805-11.297 27.305l-26.367 26.367c-15.07 15.07-39.539 15.07-54.539 0l-10.898-10.688c-0.14063 0-0.39844 0.070313-0.65625 0.1875-16.875 9.7734-35.203 17.414-53.953 22.383-3.7969 2.6016 5.7891 24.984-12.094 42.844-6.9844 6.9844-16.664 11.297-27.305 11.297h-37.336c-21.258 0-38.531-17.273-38.531-38.531l-0.1875-15.281c-0.070313-0.14062-0.25781-0.1875-0.60938-0.32812-18.609-4.9219-37.336-12.75-53.953-22.383l-1.3359 0.21094v0.070313c-11.367 11.367-19.406 21.516-37.547 21.516-9.8438 0-19.734-3.7969-27.234-11.297l-26.367-26.367c-15.07-15.07-15.07-39.539 0-54.539l10.641-10.828c0.070312-0.1875 0-0.46875-0.1875-0.72656-9.7734-16.945-17.344-35.086-22.383-53.953-2.5312-3.7969-24.914 5.7891-42.797-12.094-6.9844-6.9844-11.297-16.664-11.297-27.305v-37.336c0-21.258 17.273-38.531 38.531-38.531l15.281-0.1875c0.14062-0.070313 0.1875-0.25781 0.25781-0.60938 5.0391-18.797 12.68-37.148 22.383-53.953 0.79688-4.3828-21.656-13.547-21.656-38.859h-0.070312c0-9.8438 3.7266-19.734 11.227-27.234l26.438-26.367c7.4297-7.5 17.344-11.227 27.234-11.227v-0.070313c25.172 0 34.477 22.523 38.859 21.727 16.875-9.7031 35.203-17.344 53.953-22.383l0.79688-1.0078h0.070312v-14.555h-0.070312c0.023438-21.234 17.297-38.508 38.555-38.508zm37.336 37.477h-37.336l-1.125 1.0547v14.555h0.070312c0 17.531-11.695 32.695-28.57 37.195-15.867 4.2422-30.75 10.43-44.906 18.609-15.211 8.7656-34.219 6.2344-46.57-6.1172-1.3359-1.3359-10.031-10.57-11.039-10.57v-0.070313l-27.117 26.766c-0.1875 0.1875-0.32812 0.46875-0.32812 0.72656h-0.070312l10.641 11.039c12.352 12.352 14.883 31.359 6.1172 46.57-8.25 14.227-14.344 29.039-18.609 44.906-4.5234 16.875-19.664 28.57-37.195 28.57-1.9219 0-14.625-0.32812-15.281 0.32812-0.1875 0.21094-0.32812 0.46875-0.32812 0.72656v37.336c0 4.0547 21.586-4.3828 39.07 9.0469 6.5859 5.0391 11.484 12.234 13.758 20.672 4.2422 15.82 10.5 30.891 18.609 44.836 8.7656 15.211 6.2344 34.289-6.1172 46.57-1.3359 1.4062-10.57 10.102-10.57 11.039 0 0.32812 0.14062 0.58594 0.32812 0.79687l26.367 26.367h1.5234l10.242-10.242h0.070313c11.883-12.352 31.359-14.883 46.5-6.1172 14.273 8.2266 28.828 14.273 44.906 18.609 16.875 4.5234 28.57 19.664 28.57 37.195 0 1.9219-0.32812 14.555 0.32812 15.281 0.1875 0.1875 0.46875 0.32813 0.72656 0.32813h37.336c4.0547 0-4.3828-21.586 9.0469-39.07 11.438-14.883 25.242-13.43 42.773-21.188 9.0938-3.9844 14.156-6.1875 22.711-11.156 15.211-8.7656 34.289-6.2344 46.57 6.1172 1.4062 1.3359 10.102 10.57 11.039 10.57 0.32812 0 0.58594-0.14062 0.79688-0.32812l26.367-26.367c2.8594-2.8594-18.328-12.094-21.188-34.078-1.125-8.1797 0.46875-16.664 4.8516-24.328 4.0547-6.9141 7.6406-14.227 10.758-21.797h0.070312c3-7.3125 5.5781-15.023 7.7812-23.062 4.5234-16.875 19.664-28.641 37.195-28.641v0.14063h14.555v-0.14063l1.0547-1.0547v-37.336c0-3.9844-21.586 4.4531-39.07-8.9766-14.883-11.438-13.43-25.242-21.188-42.844-3.9844-9.0469-6.1875-14.086-11.156-22.711-8.7656-15.211-6.2344-34.219 6.1172-46.57 1.3359-1.3359 10.57-10.031 10.57-11.039 0-0.25781-0.14062-0.53906-0.32812-0.72656l-26.367-26.367c-2.8594-2.8594-12.094 18.328-34.078 21.188-8.1797 1.0547-16.688-0.46875-24.328-4.8516-13.945-8.1094-29.039-14.344-44.836-18.609-16.945-4.5234-28.641-19.664-28.641-37.195 0-1.9219 0.39844-14.625-0.25781-15.281-0.21094-0.16406-0.49219-0.30469-0.82031-0.30469zm-18.656-133.27c100.85 0 193.85 41.32 259.57 107.84l47.508-48.773h0.070312c3.3281-3.4453 8.0391-5.5781 13.289-5.6484l67.711-0.46875c14.484-37.195 62.648-47.695 91.148-19.195 34.945 34.945 10.031 94.945-39.258 94.945-24.375 0-45.516-15.82-52.875-38.344l-58.664 0.39844-43.852 44.906c47.227 58.195 76.945 131.2 81.188 210.94l72.891-0.39844c14.484-37.195 62.648-47.695 91.148-19.195 34.945 34.945 10.031 94.875-39.328 94.875-24.328 0-45.516-15.82-52.828-38.344l-71.812 0.39844c-3.7969 80.461-33.539 154.08-81.047 212.74l43.711 45.188 58.594 0.39844c12.75-39.141 62.719-51.492 92.156-22.055 34.945 34.945 10.031 94.945-39.258 94.945-23.32 0-43.711-14.484-51.891-35.555l-67.711-0.46875c-5.25 0-10.031-2.2031-13.359-5.7188l-0.070313 0.070312-47.227-48.891c-143.7 144.45-377.3 144.05-520.59-1.125l-45.375 49.102c-3.3984 4.0547-8.5078 6.5859-14.156 6.5859l-67.758 0.46875c-14.414 37.195-62.648 47.695-91.078 19.195-34.945-34.875-10.102-94.875 39.258-94.875 24.375 0 45.516 15.82 52.875 38.344l58.406-0.39844 42.914-46.383c-46.969-58.523-76.336-131.67-80.133-211.55l-71.742-0.39844c-12.75 39.141-62.719 51.492-92.156 22.055-34.945-34.945-10.031-94.875 39.258-94.875 23.32 0 43.641 14.414 51.891 35.484l72.891 0.32812c4.2422-79.852 34.078-152.93 81.445-211.2l-44.109-44.578-58.664-0.39844c-12.75 39.141-62.719 51.492-92.156 22.055-34.945-34.945-10.102-94.945 39.258-94.945 23.32 0 43.641 14.414 51.82 35.484l67.758 0.46875c5.1094 0.070312 9.8438 2.1328 13.148 5.5781l0.070313-0.070313 47.977 48.492c65.484-66.258 158.7-107.44 259.15-107.44zm232.52 133.8c-128.41-128.41-336.56-128.41-465 0-128.41 128.41-128.41 336.56 0 465 128.41 128.37 336.56 128.37 465 0 128.34-128.44 128.34-336.59 0-465zm257.98 214.38c-16.078 0-24.117 19.523-12.75 30.891s30.891 3.2578 30.891-12.82c0-9.9609-8.1094-18.07-18.141-18.07zm-968.18 5.3203c-11.367-11.367-30.891-3.3281-30.891 12.75 0 16.078 19.523 24.188 30.891 12.82 7.0312-7.0312 7.0312-18.539 0-25.57zm37.734 324.07c16.078 0 24.188-19.523 12.82-30.891s-30.891-3.2578-30.891 12.82c0 9.9609 8.0859 18.07 18.07 18.07zm12.82-617.32c-11.367-11.367-30.891-3.2578-30.891 12.82s19.523 24.188 30.891 12.82c7.0312-7.125 7.0312-18.539 0-25.641zm867.14-5.25c-16.078 0-24.188 19.523-12.82 30.891 11.367 11.367 30.891 3.2578 30.891-12.82 0-9.9844-8.1094-18.07-18.07-18.07zm-12.844 617.25c11.367 11.367 30.891 3.3281 30.891-12.75 0-16.078-19.523-24.188-30.891-12.82-7.0312 7.1016-7.0312 18.539 0 25.57z" fill="#702af4"/>
</svg>
