<?xml version="1.0" encoding="UTF-8"?>
<svg width="1200pt" height="1200pt" version="1.1" viewBox="0 0 1200 1200" xmlns="http://www.w3.org/2000/svg">
 <path d="m593.04 369c17.039 0 32.52-10.801 38.398-27 1.6797-4.6797 6.8398-7.0781 11.52-5.2812 4.6797 1.6797 7.0781 6.8398 5.2812 11.52-8.5195 23.16-30.84 38.762-55.32 38.762s-46.801-15.602-55.32-38.762c-1.6797-4.6797 0.71875-9.8398 5.2812-11.52 4.6797-1.6797 9.8398 0.71875 11.52 5.2812 6 16.199 21.359 27 38.398 27zm0.48047-73.441c-39.238 0-70.32-36.48-82.078-74.16-7.1992-3.1211-16.32-10.801-16.32-28.32 0-11.398 4.9219-21.84 12-27 0.48047-7.9219 2.2812-16.441 8.6406-21.359 7.9219-6.1211 17.641-3.7188 27.238-1.4414 12 2.8789 24.359 5.8789 36.602-3.9609 22.441-18.121 52.922-23.641 74.281-13.441 15.359 7.3203 24.359 21.48 25.801 40.199 7.0781 5.1602 12 15.719 12 27.121 0 17.52-9.1211 25.199-16.32 28.32-11.762 37.68-42.719 74.16-82.078 74.16zm66-83.762c1.0781-3.9609 4.5586-6.7188 8.6406-6.7188 0.60156-0.23828 5.5195-1.9219 5.5195-12.121 0-7.0781-3.4805-12-4.9219-12.719-0.23828 0-0.48047-0.23828-0.71875-0.23828-0.35937 0-0.71875-0.23828-0.96094-0.35938-3.7188-1.4414-6-5.0391-5.5195-9.1211 0-0.23828 0.12109-0.35938 0.23828-0.60156-0.48047-13.441-5.7617-23.16-15.719-27.961-15.121-7.1992-38.281-2.5195-55.199 11.16-19.199 15.48-39 10.68-52.199 7.4414-4.0781-0.96094-10.32-2.5195-11.879-1.8008 0 0-1.9219 2.1602-1.9219 12.84 0 0.23828-0.12109 0.48047-0.12109 0.71875 0 0.83984-0.23828 1.5586-0.48047 2.2812-0.12109 0.35938-0.23828 0.71875-0.48047 1.0781-0.35938 0.71875-0.71875 1.3203-1.1992 1.8008-0.23828 0.35938-0.60156 0.60156-0.83984 0.83984-0.48047 0.48047-1.0781 0.83984-1.6797 1.1992-0.48047 0.23828-0.83984 0.35938-1.3203 0.60156-0.23828 0-0.48047 0.23828-0.83984 0.35937-1.4414 1.0781-4.6797 5.8789-4.6797 12.602 0 10.199 4.9219 11.879 6.4805 12.121 4.0781 0 6.7188 2.6406 7.8008 6.6016 8.5195 31.801 34.559 65.762 66 65.762 31.441 0 57.602-33.84 66-65.762zm-143.28 88.801c3.9609 3 9.6016 2.1602 12.602-1.8008s2.1602-9.6016-1.8008-12.602c-24.238-18.121-39.238-37.801-39.238-80.039 0-55.32 21.238-91.199 56.762-95.879 2.7617-0.35938 5.1602-2.0391 6.6016-4.4414 11.762-20.52 39.719-27.719 60.121-27.719 22.801 0 39.359 10.199 50.398 31.078 0.83984 1.6797 2.2812 3 3.9609 3.8398 23.762 11.879 32.52 37.199 32.52 93.238 0 23.762-8.7617 36.121-18.121 49.199-7.4414 10.441-15 21.238-17.398 36.961-0.71875 4.9219 2.6406 9.4805 7.5586 10.199h1.3203c4.3203 0 8.1602-3.2383 8.8789-7.6797 1.8008-11.52 7.5586-19.801 14.398-29.281 9.9609-14.16 21.359-30.238 21.359-59.641 0-51.48-6.8398-89.641-39.961-108-14.398-25.32-36.238-38.16-64.922-38.16-24 0-56.762 8.7617-73.32 33-42.719 8.1602-68.16 50.039-68.16 113.04 0 49.559 18.602 73.559 46.441 94.441zm395.64 274.56c0.12109 0.83984 0.12109 1.8008 0 2.6406l-12.961 87.238c-0.60156 4.4414-4.4414 7.6797-8.8789 7.6797h-47.762l-32.762 361.32c-0.48047 4.6797-4.3203 8.1602-9 8.1602h-0.83984c-4.9219-0.48047-8.6406-4.8008-8.1602-9.7188l32.641-359.64-448.44 0.003906 32.641 359.64c0.48047 4.9219-3.2383 9.3594-8.1602 9.7188h-0.83984c-4.5586 0-8.5195-3.4805-9-8.1602l-32.762-361.32h-47.762c-4.4414 0-8.2812-3.2383-8.8789-7.6797l-12.961-87.238c-0.12109-0.83984-0.12109-1.8008 0-2.6406l12.961-87.238c0.60156-4.4414 4.4414-7.6797 8.8789-7.6797h25.68c1.1992-18.121 9.8398-94.801 65.52-167.04-4.6797-6.4805-7.4414-14.281-7.4414-22.922 0-21.719 17.641-39.359 39.359-39.359s39.359 17.641 39.359 39.359-17.641 39.359-39.359 39.359c-6.6016 0-12.719-1.8008-18.121-4.6797-50.16 65.879-59.52 136.8-61.078 155.28h63.961c0-39.84-0.12109-49.922-0.23828-52.441v-0.23828c-0.23828-1.6797-5.0391-42.121 24.238-75.48 24.359-27.719 64.32-41.762 118.92-41.762 4.9219 0 9 4.0781 9 9 0 4.9219-4.0781 9-9 9-49.078 0-84.602 12-105.36 35.641-24 27.238-19.922 60.961-19.922 61.199h-0.83984s0.12109 1.0781 0.23828 1.6797h0.71875c0 0.83984-0.23828 1.5586-0.48047 2.2812 0.71875 8.7617 0.83984 24.238 0.83984 51h28.801c-2.8789-16.801-5.5195-33.719-5.5195-59.52 0-4.9219 4.0781-9 9-9s9 4.0781 9 9c0 25.801 2.6406 41.641 5.7617 59.52h220.32c3.1211-17.762 5.7617-33.602 5.7617-59.52 0-4.9219 4.0781-9 9-9s9 4.0781 9 9c0 25.801-2.5195 42.602-5.5195 59.52h28.801c0-26.762 0-42.121 0.83984-51-0.23828-0.71875-0.35938-1.5586-0.48047-2.2812h0.71875s0.12109-1.0781 0.23828-1.5586h-0.83984s3.9609-34.441-20.039-61.559c-20.879-23.52-56.16-35.52-105.12-35.52-4.9219 0-9-4.0781-9-9s4.0781-9 9-9c54.48 0 94.559 14.039 118.92 41.762 29.281 33.359 24.48 73.68 24.238 75.48v0.23828c0 2.5195-0.23828 12.602-0.23828 52.441h78c-1.5586-18.48-10.922-89.398-61.078-155.28-5.3984 2.8789-11.52 4.6797-18.121 4.6797-21.719 0-39.359-17.641-39.359-39.359s17.641-39.359 39.359-39.359 39.359 17.641 39.359 39.359c0 8.5195-2.8789 16.441-7.4414 22.922 55.68 72.238 64.199 148.92 65.52 167.04h25.68c4.4414 0 8.2812 3.2383 8.8789 7.6797l12.961 87.238zm-138.48-264.6c-4.0781-4.6797-8.2812-9.3594-12.84-13.922-3.4805-3.4805-3.4805-9.2383 0-12.719 3.4805-3.4805 9.2383-3.4805 12.719 0 4.6797 4.8008 9.1211 9.6016 13.32 14.398 1.0781-2.5195 1.5586-5.1602 1.5586-8.0391 0-11.762-9.6016-21.359-21.359-21.359-11.762 0-21.359 9.6016-21.359 21.359 0 11.762 9.6016 21.359 21.359 21.359 2.2812 0 4.3203-0.48047 6.3594-1.0781zm-360.24-12.121c4.1992-4.8008 8.6406-9.7188 13.32-14.398 3.4805-3.4805 9.2383-3.4805 12.719 0 3.4805 3.4805 3.6016 9.2383 0 12.719-4.5586 4.5586-8.7617 9.2383-12.84 13.922 2.0391 0.60156 4.1992 1.0781 6.3594 1.0781 11.762 0 21.359-9.6016 21.359-21.359 0-11.762-9.6016-21.359-21.359-21.359-11.762 0-21.359 9.6016-21.359 21.359 0 2.8789 0.60156 5.5195 1.5586 8.0391zm480.72 278.04-11.641-78.238-564.6 0.003906-11.641 78.238 11.641 78.238h564.6l11.641-78.238zm-390.24-26.762h192.72c4.9219 0 9-4.0781 9-9 0-4.9219-4.0781-9-9-9h-192.72c-4.9219 0-9 4.0781-9 9 0 4.9219 4.0781 9 9 9zm245.16 17.762h-297.48c-4.9219 0-9 4.0781-9 9s4.0781 9 9 9h297.48c4.9219 0 9-4.0781 9-9s-4.0781-9-9-9zm-66.359 35.762h-164.88c-4.9219 0-9 4.0781-9 9s4.0781 9 9 9h164.88c4.9219 0 9-4.0781 9-9s-4.0781-9-9-9zm222.72 527.76c0 4.9219-4.0781 9-9 9l-592.32 0.003906c-4.9219 0-9-4.0781-9-9 0-42.719 40.559-77.52 90.238-77.52h429.84c49.801 0 90.238 34.801 90.238 77.52zm-18.84-9c-5.2812-28.559-35.281-50.52-71.398-50.52l-429.84 0.003907c-36.121 0-66.121 21.961-71.398 50.52h572.76z" fill="#702af4"/>
</svg>
