<?xml version="1.0" encoding="UTF-8"?>
<svg width="1200pt" height="1200pt" version="1.1" viewBox="0 0 1200 1200" xmlns="http://www.w3.org/2000/svg">
 <path d="m508.8 560.4c-8.3984 4.8008-10.801 14.398-6 22.801 27.602 48-10.801 88.801-13.199 91.199-6 7.1992-6 16.801 0 24 3.6016 3.6016 7.1992 4.8008 12 4.8008 4.8008 0 8.3984-1.1992 12-4.8008 20.398-21.602 50.398-75.602 18-130.8-4.8008-8.3984-15.602-11.996-22.801-7.1992z" fill="#702af4"/>
 <path d="m541.2 430.8c8.3984-4.8008 10.801-14.398 6-22.801-4.8008-8.3984-14.398-10.801-22.801-6-3.6016 2.3984-33.602 21.602-36 52.801-1.1992 21.602 9.6016 40.801 31.199 60 3.6016 2.3984 7.1992 3.6016 10.801 3.6016 4.8008 0 9.6016-2.3984 13.199-6 6-7.1992 4.8008-18-2.3984-24-9.6016-7.1992-20.398-19.199-19.199-31.199 0-12.004 14.398-22.805 19.199-26.402z" fill="#702af4"/>
 <path d="m818.4 444c-6-54-50.398-96-103.2-98.398-16.801-25.199-44.398-40.801-74.398-40.801-14.398 0-28.801 3.6016-40.801 10.801-13.199-7.1992-26.398-10.801-40.801-10.801-30 0-57.602 15.602-74.398 40.801-52.801 2.3984-97.199 44.398-103.2 98.398-31.199 14.398-51.602 46.801-51.602 84 0 20.398 6 39.602 18 56.398-7.1992 14.398-10.801 28.801-10.801 44.398 0 30 13.199 57.602 36 76.801 2.3984 52.801 37.199 99.602 85.199 115.2 13.199 45.602 55.199 76.801 100.8 76.801 14.398 0 27.602-3.6016 40.801-9.6016 13.199 6 26.398 9.6016 40.801 9.6016 46.801 0 87.602-31.199 100.8-76.801 48-15.602 82.801-62.398 85.199-115.2 22.801-18 36-46.801 36-76.801 0-15.602-3.6016-31.199-10.801-44.398 12-15.602 18-36 18-56.398 1.1992-37.199-20.398-69.602-51.602-84zm-235.2 414c-38.398 15.602-80.398-9.6016-92.398-48-1.1992-4.8008-2.3984-9.6016-2.3984-15.602-1.1992-9.6016 6-14.398 8.3984-16.801 4.8008-2.3984 13.199-3.6016 20.398 1.1992l9.6016 7.1992c7.1992 6 18 4.8008 22.801-2.3984 6-7.1992 4.8008-18-2.3984-22.801l-9.6016-7.1992c-16.801-13.199-38.398-14.398-56.398-4.8008-13.203 7.2031-21.602 19.203-25.203 33.602-28.801-14.398-49.199-45.602-50.398-79.199 4.8008-27.602 21.602-45.602 49.199-52.801 8.3984-2.3984 14.398-10.801 12-20.398-2.3984-8.3984-10.801-14.398-20.398-12-28.801 7.1992-50.398 24-63.602 48-8.3984-10.801-13.199-25.199-13.199-39.602 0-13.199 3.6016-26.398 10.801-37.199 4.8008-6 3.6016-15.602-2.3984-20.398-10.801-10.801-16.801-26.398-16.801-42 0-20.398 9.6016-38.398 24-49.199 9.6016 25.199 28.801 51.602 68.398 67.199 2.3984 1.1992 3.6016 1.1992 6 1.1992 7.1992 0 13.199-3.6016 15.602-10.801 3.6016-8.3984-1.1992-18-9.6016-21.602-30-12-48-32.398-52.801-62.398 2.3984-40.801 34.801-73.199 74.398-73.199h3.6016c7.1992 0 13.199-3.6016 15.602-9.6016 9.6016-20.398 28.801-32.398 50.398-32.398 8.3984 0 16.801 2.3984 24 6v516zm235.2-267.6c7.1992 10.801 10.801 24 10.801 37.199 0 14.398-4.8008 27.602-13.199 39.602-12-24-33.602-40.801-63.602-48-8.3984-2.3984-18 3.6016-20.398 12-2.3984 8.3984 3.6016 18 12 20.398 27.602 7.1992 43.199 24 49.199 51.602-1.1992 33.602-20.398 64.801-49.199 79.199-3.6016-13.199-12-25.199-25.199-32.398-18-9.6016-40.801-8.3984-56.398 4.8008l-9.6016 7.1992c-7.1992 6-8.3984 15.602-2.3984 22.801s15.602 8.3984 22.801 2.3984l9.6016-7.1992c7.1992-6 14.398-4.8008 20.398-1.1992 2.3984 1.1992 9.6016 6 8.3984 16.801 0 4.8008-1.1992 10.801-2.3984 15.602-12 38.398-54 62.398-92.398 48l-0.003907-516c7.1992-3.6016 15.602-6 24-6 21.602 0 40.801 12 50.398 32.398 2.3984 6 9.6016 9.6016 15.602 9.6016h4.8008c39.602 0 72 32.398 74.398 73.199-6 30-24 50.398-52.801 62.398-8.3984 3.6016-13.199 13.199-9.6016 21.602 2.3984 6 8.3984 10.801 15.602 10.801 2.3984 0 3.6016 0 6-1.1992 39.602-15.602 58.801-42 68.398-67.199 15.602 10.801 24 28.801 24 49.199 0 15.602-6 31.199-16.801 42-5.9961 6-7.1953 14.398-2.3984 20.398z" fill="#702af4"/>
 <path d="m697.2 583.2c4.8008-8.3984 2.3984-18-6-22.801-8.3984-4.8008-18-2.3984-22.801 6-32.398 55.199-2.3984 110.4 18 130.8 3.6016 3.6016 7.1992 4.8008 12 4.8008 3.6016 0 8.3984-1.1992 12-4.8008 7.1992-6 7.1992-16.801 0-24-1.1992 0-40.797-42-13.199-90z" fill="#702af4"/>
 <path d="m669.6 518.4c3.6016 0 7.1992-1.1992 10.801-3.6016 22.801-18 33.602-38.398 31.199-60-2.3984-32.398-33.602-51.602-36-52.801-8.3984-4.8008-18-2.3984-22.801 6-4.8008 8.3984-2.3984 18 6 22.801 4.8008 3.6016 19.199 14.398 20.398 27.602 1.1992 12-10.801 24-19.199 31.199-7.1992 6-8.3984 16.801-2.3984 24 2.3984 3.6016 7.1992 4.8008 12 4.8008z" fill="#702af4"/>
 <path d="m1101.6 512.4c-32.398 0-58.801 22.801-66 51.602h-80.398c-9.6016 0-16.801 7.1992-16.801 16.801 0 9.6016 7.1992 16.801 16.801 16.801h80.398c7.1992 30 34.801 51.602 66 51.602 38.398 0 68.398-31.199 68.398-68.398 0-37.203-31.199-68.406-68.398-68.406zm0 104.4c-19.199 0-36-15.602-36-36 0-19.199 15.602-36 36-36 19.199 0 36 15.602 36 36-1.2031 20.398-16.801 36-36 36z" fill="#702af4"/>
 <path d="m913.2 498c4.8008 0 8.3984-1.1992 12-4.8008l56.398-56.398c10.801 6 22.801 9.6016 34.801 9.6016 38.398 0 68.398-31.199 68.398-68.398 0-37.199-31.199-68.398-68.398-68.398-38.398 0-68.398 31.199-68.398 68.398 0 13.199 3.6016 25.199 9.6016 34.801l-56.398 56.398c-6 6-6 16.801 0 24 3.5977 3.5977 7.1953 4.7969 11.996 4.7969zm103.2-156c19.199 0 36 15.602 36 36 0 19.199-15.602 36-36 36-19.199 0-36-15.602-36-36 1.2031-19.199 16.801-36 36-36z" fill="#702af4"/>
 <path d="m1016.4 716.4c-13.199 0-25.199 3.6016-34.801 9.6016l-56.398-56.398c-6-6-16.801-6-24 0-6 6-6 16.801 0 24l56.398 56.398c-6 10.801-9.6016 22.801-9.6016 34.801 0 38.398 31.199 68.398 68.398 68.398 38.398 0 68.398-31.199 68.398-68.398 1.207-37.199-29.992-68.402-68.395-68.402zm0 104.4c-19.199 0-36-15.602-36-36 0-19.199 15.602-36 36-36 19.199 0 36 15.602 36 36 0 20.398-15.598 36-36 36z" fill="#702af4"/>
 <path d="m165.6 597.6h80.398c9.6016 0 16.801-7.1992 16.801-16.801 0-9.6016-7.1992-16.801-16.801-16.801h-80.398c-7.1992-30-34.801-51.602-66-51.602-38.398 0-68.398 31.199-68.398 68.398 0 38.398 31.199 68.398 68.398 68.398 31.199 1.2031 57.598-21.594 66-51.594zm-67.203 19.199c-19.199 0-36-15.602-36-36 0-19.199 15.602-36 36-36 20.398 0 36 15.602 36 36 0 20.398-15.598 36-36 36z" fill="#702af4"/>
 <path d="m274.8 669.6-56.398 56.398c-10.801-6-22.801-9.6016-34.801-9.6016-38.398 0-68.398 31.199-68.398 68.398 0 38.398 31.199 68.398 68.398 68.398 37.199 0 68.398-31.199 68.398-68.398 0-13.199-3.6016-25.199-9.6016-34.801l56.398-56.398c6-6 6-16.801 0-24-5.9961-5.9961-16.797-5.9961-23.996 0.003906zm-91.199 151.2c-19.199 0-36-15.602-36-36 0-19.199 15.602-36 36-36 20.398 0 36 15.602 36 36-1.2031 20.398-16.801 36-36 36z" fill="#702af4"/>
 <path d="m242.4 412.8c6-10.801 9.6016-22.801 9.6016-34.801 0-38.398-31.199-68.398-68.398-68.398-37.199 0-68.398 31.199-68.398 68.398s31.199 68.398 68.398 68.398c13.199 0 25.199-3.6016 34.801-9.6016l56.398 56.398c3.6016 3.6016 7.1992 4.8008 12 4.8008s8.3984-1.1992 12-4.8008c6-6 6-16.801 0-24zm-94.797-34.801c0-19.199 15.602-36 36-36 20.398 0 36 15.602 36 36 0 19.199-15.602 36-36 36-20.402 0-36-16.801-36-36z" fill="#702af4"/>
</svg>
