<?xml version="1.0" encoding="UTF-8"?>
<svg width="1200pt" height="1200pt" version="1.1" viewBox="0 0 1200 1200" xmlns="http://www.w3.org/2000/svg">
 <path d="m581.25 375c0-72.363-58.887-131.25-131.25-131.25s-131.25 58.887-131.25 131.25 58.887 131.25 131.25 131.25 131.25-58.887 131.25-131.25zm-225 0c0-51.707 42.059-93.75 93.75-93.75s93.75 42.043 93.75 93.75-42.059 93.75-93.75 93.75-93.75-42.043-93.75-93.75z" fill="#702af4"/>
 <path d="m506.25 375c0-31.02-25.23-56.25-56.25-56.25s-56.25 25.23-56.25 56.25 25.23 56.25 56.25 56.25 56.25-25.23 56.25-56.25zm-75 0c0-10.328 8.4062-18.75 18.75-18.75s18.75 8.4219 18.75 18.75-8.4062 18.75-18.75 18.75-18.75-8.4219-18.75-18.75z" fill="#702af4"/>
 <path d="m450 206.25c10.363 0 18.75-8.3867 18.75-18.75v-22.203c21.777-7.7656 37.5-28.383 37.5-52.797 0-31.02-25.23-56.25-56.25-56.25s-56.25 25.23-56.25 56.25c0 24.414 15.723 45.031 37.5 52.797v22.203c0 10.363 8.3867 18.75 18.75 18.75zm0-112.5c10.344 0 18.75 8.4219 18.75 18.75s-8.4062 18.75-18.75 18.75-18.75-8.4219-18.75-18.75 8.4062-18.75 18.75-18.75z" fill="#702af4"/>
 <path d="m304.16 149.6c-21.938-21.898-57.605-21.898-79.543 0-21.938 21.938-21.938 57.641 0.019531 79.578 10.949 10.949 25.34 16.406 39.754 16.406 8.2188 0 16.227-2.2812 23.816-5.8477l15.957 15.957c3.6602 3.6602 8.4609 5.4922 13.258 5.4922s9.5938-1.832 13.258-5.4922c7.3242-7.3242 7.3242-19.191 0-26.512l-15.941-15.941c9.8516-20.883 6.6641-46.398-10.57-63.637zm-53.027 53.062c-7.3242-7.3242-7.3242-19.227 0-26.551 3.6602-3.6602 8.4609-5.4922 13.258-5.4922s9.5938 1.832 13.258 5.4922c7.3164 7.3164 7.3164 19.203 0.03125 26.531-0.007812 0.007813-0.023437 0.011719-0.03125 0.019531-0.007812 0.007813-0.007812 0.015625-0.015625 0.019532-7.3281 7.2617-19.223 7.2227-26.5-0.019532z" fill="#702af4"/>
 <path d="m240.3 393.75h22.203c10.363 0 18.75-8.3867 18.75-18.75s-8.3867-18.75-18.75-18.75h-22.203c-7.7656-21.777-28.383-37.5-52.797-37.5-31.02 0-56.25 25.23-56.25 56.25s25.23 56.25 56.25 56.25c24.414 0 45.031-15.723 52.797-37.5zm-52.797 0c-10.344 0-18.75-8.4219-18.75-18.75s8.4062-18.75 18.75-18.75 18.75 8.4219 18.75 18.75-8.4062 18.75-18.75 18.75z" fill="#702af4"/>
 <path d="m304.16 494.31-15.949 15.949c-20.859-9.8281-46.367-6.6406-63.57 10.562h-0.019531c-21.938 21.938-21.938 57.641 0 79.578 10.969 10.949 25.359 16.441 39.77 16.441 14.41 0 28.801-5.4922 39.77-16.441 17.234-17.234 20.426-42.754 10.566-63.633l15.945-15.945c7.3242-7.3242 7.3242-19.191 0-26.512-7.3242-7.3242-19.191-7.3242-26.512 0zm-26.512 79.578c-7.3242 7.3242-19.191 7.3242-26.512 0-7.3047-7.3242-7.3242-19.227-0.019531-26.551 7.3594-7.25 19.281-7.2148 26.531 0 7.3242 7.3242 7.3242 19.227 0 26.551z" fill="#702af4"/>
 <path d="m506.25 637.5c0-24.414-15.723-45.031-37.5-52.797v-22.203c0-10.363-8.3867-18.75-18.75-18.75s-18.75 8.3867-18.75 18.75v22.203c-21.777 7.7656-37.5 28.383-37.5 52.797 0 31.02 25.23 56.25 56.25 56.25s56.25-25.23 56.25-56.25zm-75 0c0-10.328 8.4062-18.75 18.75-18.75s18.75 8.4219 18.75 18.75-8.4062 18.75-18.75 18.75-18.75-8.4219-18.75-18.75z" fill="#702af4"/>
 <path d="m595.84 600.4c10.969 10.949 25.359 16.441 39.77 16.441 14.41 0 28.801-5.4922 39.77-16.441 21.938-21.938 21.938-57.641-0.019531-79.578-17.191-17.203-42.688-20.391-63.57-10.562l-15.953-15.953c-7.3242-7.3242-19.191-7.3242-26.512 0-7.3242 7.3242-7.3242 19.191 0 26.512l15.941 15.941c-9.8516 20.883-6.6641 46.398 10.57 63.637zm53.027-53.062c7.3242 7.3242 7.3242 19.227 0 26.551-7.3242 7.3242-19.191 7.3242-26.512 0-7.3164-7.3164-7.3164-19.203-0.03125-26.531 0.007813-0.007813 0.023437-0.011719 0.03125-0.019531 0.007813-0.007813 0.007813-0.015625 0.015625-0.019532 3.6602-3.6055 8.457-5.4375 13.242-5.4375 4.8164 0 9.6133 1.832 13.258 5.457z" fill="#702af4"/>
 <path d="m768.75 375c0-31.02-25.23-56.25-56.25-56.25-24.414 0-45.031 15.723-52.797 37.5h-22.203c-10.363 0-18.75 8.3867-18.75 18.75s8.3867 18.75 18.75 18.75h22.203c7.7656 21.777 28.383 37.5 52.797 37.5 31.02 0 56.25-25.23 56.25-56.25zm-75 0c0-10.328 8.4062-18.75 18.75-18.75s18.75 8.4219 18.75 18.75-8.4062 18.75-18.75 18.75-18.75-8.4219-18.75-18.75z" fill="#702af4"/>
 <path d="m595.84 149.6c-17.234 17.234-20.426 42.754-10.566 63.633l-15.945 15.945c-7.3242 7.3242-7.3242 19.191 0 26.512 3.6602 3.6602 8.4609 5.4922 13.258 5.4922s9.5938-1.832 13.258-5.4922l15.957-15.957c7.5859 3.5664 15.59 5.8516 23.812 5.8516 14.391 0 28.801-5.457 39.754-16.406h0.019531c21.938-21.938 21.938-57.641 0-79.578-21.938-21.898-57.605-21.898-79.543 0zm53.047 53.062c-7.3242 7.2891-19.246 7.25-26.531 0-7.3242-7.3242-7.3242-19.227 0-26.551 3.6602-3.6602 8.4609-5.4922 13.258-5.4922 4.7969 0 9.5938 1.832 13.258 5.4922 7.3047 7.3242 7.3242 19.227 0.019531 26.551z" fill="#702af4"/>
 <path d="m993.75 592.24v-142.24c0-134.4-109.35-243.75-243.75-243.75-10.363 0-18.75 8.3867-18.75 18.75s8.3867 18.75 18.75 18.75c113.73 0 206.25 92.543 206.25 206.25v150c0 4.9805 1.9766 9.7422 5.4922 13.258l59.254 59.254c10.145 10.145 12.91 24.168 7.3984 37.5-5.5117 13.293-17.34 21.238-31.641 21.238h-21.754c-10.363 0-18.75 8.3867-18.75 18.75v112.5c0 10.328-8.4062 18.75-18.75 18.75h-262.48c-31.02 0-56.25-25.23-56.25-56.25 0-10.363-8.3867-18.75-18.75-18.75s-18.75 8.3867-18.75 18.75c0 51.707 42.059 93.75 93.75 93.75h131.23v187.5h-337.5v-131.25c0-10.363-8.3867-18.75-18.75-18.75s-18.75 8.3867-18.75 18.75v150c0 10.363 8.3867 18.75 18.75 18.75h375c10.363 0 18.75-8.3867 18.75-18.75v-206.25h93.75c31.02 0 56.25-25.23 56.25-56.25v-93.75h3.0039c29.555 0 54.949-16.992 66.285-44.387 11.352-27.43 5.4023-57.457-15.527-78.371l-53.762-53.762z" fill="#702af4"/>
 <path d="m468.75 750c0-10.363-8.3867-18.75-18.75-18.75s-18.75 8.3867-18.75 18.75v75c0 10.363 8.3867 18.75 18.75 18.75s18.75-8.3867 18.75-18.75z" fill="#702af4"/>
 <path d="m468.75 900c0 10.355-8.3945 18.75-18.75 18.75s-18.75-8.3945-18.75-18.75 8.3945-18.75 18.75-18.75 18.75 8.3945 18.75 18.75" fill="#702af4"/>
</svg>
