<?xml version="1.0" encoding="UTF-8"?>
<svg width="1200pt" height="1200pt" version="1.1" viewBox="0 0 1200 1200" xmlns="http://www.w3.org/2000/svg">
 <path d="m1100 466.69h-316.69c-36.75 0-66.656 29.906-66.656 66.656v549.98c0 36.75 29.906 66.656 66.656 66.656h316.69c27.562 0 50.016-22.406 50.016-50.016l-0.046875-583.31c0-27.562-22.406-50.016-50.016-50.016zm-16.688 416.63h16.688c5.8594 0 11.438-1.0312 16.688-2.8594v52.828c0 9.1875-7.5 16.688-16.688 16.688h-16.688zm-333.32-349.97c0-18.375 14.953-33.328 33.328-33.328h316.69c9.1875 0 16.688 7.4531 16.688 16.688v316.69c0 9.1875-7.5 16.688-16.688 16.688h-266.68v-200.02c0-9.2344-7.4531-16.688-16.688-16.688-9.1875 0-16.688 7.4531-16.688 16.688v200.02h-16.688c-12.141 0-23.531 3.2344-33.328 8.9531v-325.64zm33.328 349.97h266.68v66.656h-266.68c-18.375 0-33.328-14.953-33.328-33.328s14.953-33.328 33.328-33.328zm16.688 100.03v33.328h-16.688c-12.188 0-23.484 3.5156-33.328 9.2812v-51.891c9.8438 5.7188 21.141 9.2812 33.328 9.2812zm-16.688 133.31c-18.375 0-33.328-14.953-33.328-33.328s14.953-33.328 33.328-33.328h266.68v66.656zm333.32-16.641c0 9.1875-7.5 16.688-16.688 16.688h-16.688v-66.656h16.688c5.8594 0 11.438-1.0312 16.688-2.8594zm-16.641-83.344h-266.68v-33.328h266.68c5.8594 0 11.438-1.2188 16.688-3.0938v19.734c0 9.1875-7.5 16.688-16.688 16.688z" fill="#702af4"/>
 <path d="m816.66 616.69c9.1875 0 16.688-7.4531 16.688-16.688v-16.688c0-9.2344-7.4531-16.688-16.688-16.688-9.1875 0-16.688 7.4531-16.688 16.688v16.688c0 9.2344 7.4531 16.688 16.688 16.688z" fill="#702af4"/>
 <path d="m883.31 566.68h183.32c9.1875 0 16.688-7.4531 16.688-16.688s-7.4531-16.688-16.688-16.688h-183.32c-9.1875 0-16.688 7.4531-16.688 16.688s7.4531 16.688 16.688 16.688z" fill="#702af4"/>
 <path d="m883.31 616.69h183.32c9.1875 0 16.688-7.4531 16.688-16.688s-7.4531-16.688-16.688-16.688h-183.32c-9.1875 0-16.688 7.4531-16.688 16.688s7.4531 16.688 16.688 16.688z" fill="#702af4"/>
 <path d="m900 233.34h-168.32c-9.1875 0-16.688 7.4531-16.688 16.688s7.4531 16.688 16.688 16.688h168.32c27.562 0 50.016 22.406 50.016 50.016v116.67c0 9.2344 7.4531 16.688 16.688 16.688 9.1875 0 16.688-7.4531 16.688-16.688v-233.34c0-45.938-37.406-83.344-83.344-83.344h-166.69c-9.1875 0-16.688 7.4531-16.688 16.688s7.4531 16.688 16.688 16.688h166.69c27.562 0 50.016 22.406 50.016 50.016v50.438c-13.969-10.594-31.172-17.109-50.016-17.109z" fill="#702af4"/>
 <path d="m99.984 933.32h583.31c9.1875 0 16.688-7.4531 16.688-16.688s-7.4531-16.688-16.688-16.688h-233.34v-283.31c0-27.562-22.406-50.016-50.016-50.016h-166.69c-27.562 0-50.016 22.406-50.016 50.016v283.31h-50.016c-27.562 0-50.016-22.406-50.016-50.016l0.14062-533.26c0-27.562 22.406-50.016 50.016-50.016h168.32c9.1875 0 16.688-7.4531 16.688-16.688s-7.4531-16.688-16.688-16.688h-168.32c-18.844 0-36.047 6.5156-50.016 17.109v-50.438c0-27.562 22.406-50.016 50.016-50.016h166.69c9.1875 0 16.688-7.4531 16.688-16.688s-7.4531-16.688-16.688-16.688h-166.69c-45.938 0-83.344 37.406-83.344 83.344v650.02c0 22.453 9 42.75 23.484 57.75-14.062 8.8594-23.484 24.422-23.484 42.234v33.328c0 27.562 22.406 50.016 50.016 50.016h583.31c9.1875 0 16.688-7.4531 16.688-16.688s-7.4531-16.688-16.688-16.688l-583.36 0.09375c-9.1875 0-16.688-7.4531-16.688-16.688v-33.328c0-9.1875 7.5-16.688 16.688-16.688zm116.67-316.64c0-9.1875 7.5-16.688 16.688-16.688h166.69c9.1875 0 16.688 7.4531 16.688 16.688v283.31h-200.02v-283.31z" fill="#702af4"/>
 <path d="m383.34 750c-9.1875 0-16.688 7.4531-16.688 16.688v16.688c0 9.2344 7.4531 16.688 16.688 16.688 9.1875 0 16.688-7.4531 16.688-16.688v-16.688c0-9.2344-7.4531-16.688-16.688-16.688z" fill="#702af4"/>
 <path d="m216.66 533.34c0 9.2344 7.4531 16.688 16.688 16.688h166.69c9.1875 0 16.688-7.4531 16.688-16.688s-7.4531-16.688-16.688-16.688h-166.69c-9.1875 0-16.688 7.4531-16.688 16.688z" fill="#702af4"/>
 <path d="m650.02 50.016h-52.828c-29.109 0-57.703 9.9844-80.484 27.797-22.828-17.812-51.422-27.797-80.484-27.797h-52.828c-27.562 0-50.016 22.406-50.016 50.016v133.31c0 27.562 22.406 50.016 50.016 50.016h52.828c25.594 0 50.625 10.359 68.719 28.453 3.2344 3.2344 7.5 4.875 11.766 4.875s8.5312-1.6406 11.766-4.875c18.094-18.094 43.125-28.453 68.719-28.453h52.828c27.562 0 50.016-22.406 50.016-50.016l-0.046875-133.36c0-27.562-22.406-50.016-50.016-50.016zm-266.68 199.97c-9.1875 0-16.688-7.4531-16.688-16.688v-133.31c0-9.1875 7.5-16.688 16.688-16.688h52.828c23.391 0 46.266 8.7188 63.844 24.047v159.52c-19.406-10.875-41.438-16.875-63.844-16.875zm283.31-16.641c0 9.1875-7.5 16.688-16.688 16.688h-52.828c-22.406 0-44.438 6.0469-63.844 16.875l0.046876-159.52c17.578-15.281 40.453-24.047 63.844-24.047h52.828c9.1875 0 16.688 7.4531 16.688 16.688v133.31z" fill="#702af4"/>
 <path d="m399.98 150h33.328c9.1875 0 16.688-7.4531 16.688-16.688s-7.4531-16.688-16.688-16.688h-33.328c-9.1875 0-16.688 7.4531-16.688 16.688s7.4531 16.688 16.688 16.688z" fill="#702af4"/>
 <path d="m433.31 183.32h-33.328c-9.1875 0-16.688 7.4531-16.688 16.688s7.4531 16.688 16.688 16.688h33.328c9.1875 0 16.688-7.4531 16.688-16.688s-7.4531-16.688-16.688-16.688z" fill="#702af4"/>
 <path d="m633.32 116.67h-33.328c-9.1875 0-16.688 7.4531-16.688 16.688s7.4531 16.688 16.688 16.688h33.328c9.1875 0 16.688-7.4531 16.688-16.688s-7.4531-16.688-16.688-16.688z" fill="#702af4"/>
 <path d="m633.32 183.32h-33.328c-9.1875 0-16.688 7.4531-16.688 16.688s7.4531 16.688 16.688 16.688h33.328c9.1875 0 16.688-7.4531 16.688-16.688s-7.4531-16.688-16.688-16.688z" fill="#702af4"/>
</svg>
