<?xml version="1.0" encoding="UTF-8"?>
<svg width="1200pt" height="1200pt" version="1.1" viewBox="0 0 1200 1200" xmlns="http://www.w3.org/2000/svg">
 <path d="m674.26 685.13c10.406-4.2656 20.344-9.4688 29.766-15.516 2.7656-1.7812 6.4688-1.7812 9.2812 0.28125l47.109 34.594 35.25-35.25-34.406-46.875c-2.1094-2.6719-2.3906-6.4688-0.42187-9.4688 11.297-17.625 20.906-39.844 25.125-60.516 0.60937-3.3281 3.2812-6.0469 6.8438-6.6094l57.703-8.8594-0.09375-49.781-57.703-8.8594c-3.2812-0.46875-6.0469-2.9531-6.7969-6.375-4.6875-21.609-13.312-42.281-25.172-60.75-1.7812-2.7656-1.7812-6.4688 0.28125-9.2812l34.594-47.109-35.25-35.25-46.875 34.406c-2.6719 2.1094-6.4688 2.3906-9.4688 0.42188-17.625-11.297-39.844-20.906-60.516-25.125-3.3281-0.60938-6.0469-3.2812-6.6094-6.8438l-8.8594-57.703h-49.781l-8.8594 57.703c-0.46875 3.2812-2.9531 6.0469-6.375 6.7969-21.609 4.6875-42.281 13.312-60.75 25.172-2.7656 1.7812-6.4688 1.7812-9.2812-0.28125l-47.109-34.594-35.25 35.25 34.406 46.875c2.1094 2.6719 2.3906 6.4688 0.42188 9.4688-11.297 17.625-20.906 39.844-25.125 60.516-0.60938 3.3281-3.2812 6.0469-6.8438 6.6094l-57.703 8.8594v49.781l57.703 8.8594c3.2812 0.46875 6.0469 2.9531 6.7969 6.375 4.6875 21.609 13.312 42.281 25.172 60.75 1.7812 2.7656 1.7812 6.4688-0.28125 9.2812l-34.594 47.109 35.25 35.25 46.875-34.406c2.6719-2.1094 6.4688-2.3906 9.4688-0.42188 9.4219 6.0469 19.406 11.25 29.766 15.516-16.078-79.781-67.828-123.37-67.828-171.28 0-76.734 62.203-138.89 138.89-138.89 76.734 0 138.89 62.203 138.89 138.89 0.1875 48.188-51.422 91.031-67.641 171.28zm-13.031 44.906h-117c-16.547 0-16.547 30.516 0 30.516h117c8.625 0 12.375-7.8281 12.375-15.281h0.046876c0-7.2656-3.75-15.234-12.422-15.234zm-117 46.922c-16.547 0-16.547 30.516 0 30.516h117c16.547 0 16.547-30.516 0-30.516zm96.469 46.969h-75c0 7.875-1.2188 12.422 5.25 17.297 3.8906 2.9531 9.4219 4.7812 15.609 4.7812h33.188c9.4219 0 20.906-5.25 20.906-13.781zm-78.281-295.87v-0.046876c-15.609 0-32.156-12.891-32.578-23.484-0.70313-16.969 40.547-8.5312 45 21.141-3.9844 1.5938-8.2031 2.3906-12.422 2.3906zm12.75 14.672v170.9h-22.641l-1.875-17.344c-6-48.094-28.922-89.625-44.953-118.22-13.594-24.281-24.984-44.672-24.984-64.219 0-67.641 54.844-122.48 122.48-122.48 67.641 0 122.48 54.844 122.48 122.48 0 46.641-64.031 96.422-71.812 199.78h-22.641v-170.9c4.125 1.0781 8.4375 1.6406 12.75 1.6406v0.046875c29.906 0 58.828-29.766 45.797-52.359-15.938-27.562-74.906-7.1719-74.906 38.531v183h-23.297v-183c0-44.203-56.766-66.422-74.578-39.094-13.688 21.047 13.875 52.875 45.422 52.875v-0.046875c4.3125 0.046875 8.5781-0.46875 12.75-1.5938zm384.89 106.22c15.469-0.23437 30 3.1875 42.703 11.484l51.703-254.11c-12.047-9.4219-26.812-11.766-38.062 0.28125-4.6406 4.9688-8.625 12.234-11.531 22.172l-13.594 66.75c-0.046875 0.23438-0.09375 0.46875-0.14062 0.65625zm-65.766 17.344 29.906-147.05c2.9531-10.078 7.0312-17.438 11.766-22.406 11.344-11.906 26.344-9.2344 38.297 0.32812l-31.219 153.32c-15.891 2.625-32.391 8.2969-48.75 15.797zm-229.36 260.72-44.953 77.812c-1.9219 3.3281-0.70312 7.7812 2.5781 9.6562l240.66 138.89c3.3281 1.9219 7.7812 0.70312 9.6562-2.625l44.953-77.812c1.875-3.2812 0.79688-7.6875-2.625-9.6562l-240.56-138.89c-3.4688-1.9688-7.875-0.65625-9.7031 2.625zm65.344 10.641 25.828-126.79c5.3906-26.484 18.844-43.875 39.656-60.75 22.828-18.516 62.672-49.078 103.5-68.062 37.266-17.344 75.234-24.984 100.08-3.7031-6.4219 29.719-50.297 62.906-71.953 81.656-8.1562 7.0312 2.5781 19.406 10.688 12.375 1.3125-1.1719 4.0312-3.4219 7.2188-6.0469 21.984-18.188 67.172-55.641 70.828-89.766l55.219-271.31c0.046874-0.23438 0.09375-0.51562 0.14062-0.75l8.8125-43.359c4.7812-16.312 12.469-25.406 20.953-28.781 10.828-4.2656 22.547 0.75 31.266 8.5781 13.266 11.906 22.969 32.812 21.656 57.891l-30.516 270.52c-10.641 94.547-40.031 116.34-90.188 153.56-26.812 19.875-59.25 43.969-97.969 84.844-33.938 35.578-54.938 68.438-67.031 109.64zm121.55 135.71c8.7656-2.3438 17.766 2.8125 20.156 11.625 4.0312 14.953-12.75 25.359-23.578 18.844-14.297-8.6719-9.6562-26.953 3.4219-30.469zm-27.375 7.0781-12.891-7.4531c-9.3281-5.3906-1.125-19.547 8.2031-14.156l12.844 7.4062c17.719-18.094 48.609-9.9844 55.172 14.484 7.5938 28.312-23.25 51.562-48.141 36.891-13.125-7.7812-19.172-22.922-15.188-37.172zm157.74-985.4c6.7031 2.7656 13.078 6.1406 19.078 9.9844 3 1.9219 6.7969 1.6406 9.4688-0.42188l29.25-21.469 20.156 20.156-21.656 29.484c-2.0625 2.8125-2.0625 6.5156-0.28125 9.2812 7.7344 12.047 13.359 25.453 16.406 39.562 0.75 3.4219 3.5156 5.8594 6.7969 6.375l36.094 5.5312v28.453l-36.094 5.5312c-3.5625 0.51562-6.1875 3.2812-6.8438 6.6094-2.7656 13.453-9 27.891-16.359 39.328-1.9219 3-1.6406 6.7969 0.42188 9.4688l21.469 29.25-20.156 20.156-29.484-21.656c-2.8125-2.0625-6.5156-2.0625-9.2812-0.28125-12.047 7.7344-25.453 13.359-39.562 16.406-3.4219 0.75-5.8594 3.5156-6.375 6.7969l-5.5312 36.094h-28.453l-5.5312-36.094c-0.51562-3.5625-3.2812-6.1875-6.6094-6.8438-13.453-2.7656-27.891-9-39.328-16.359-3-1.9219-6.7969-1.6406-9.4688 0.46875l-29.25 21.469-20.156-20.156 21.656-29.484c2.0625-2.8125 2.0625-6.5156 0.28125-9.2812-7.7344-12.047-13.359-25.453-16.406-39.562-0.75-3.4219-3.5156-5.8594-6.7969-6.375l-36.094-5.5312 0.046875-28.5 36.094-5.5312c3.5625-0.51562 6.1875-3.2812 6.8438-6.6094 2.7656-13.453 9-27.891 16.359-39.328 1.9219-3 1.6406-6.7969-0.42188-9.4688l-21.469-29.25 20.156-20.156 29.484 21.656c2.8125 2.0625 6.5156 2.0625 9.2812 0.28125 12.047-7.7344 25.453-13.312 39.562-16.406 3.4219-0.75 5.8594-3.5156 6.375-6.7969l5.5312-36.094h28.453l5.5312 36.094c0.51562 3.5625 3.2344 6.1875 6.6094 6.8438 6.9844 1.5469 13.734 3.7031 20.203 6.375zm-725.21 555.47c15.891 2.625 32.438 8.2969 48.75 15.75l-29.906-147.05c-3.2344-13.031-11.812-26.625-23.625-29.625-9.2812-2.3906-18.844 1.5-26.438 7.5938zm-111.42-244.18c7.5469-5.8594 16.969-9.5625 26.109-7.2188 11.719 3.0469 20.297 16.688 23.484 29.625 4.8281 21.375 8.9062 46.031 13.734 67.406l31.078 152.81c-15.469-0.23438-30 3.1875-42.703 11.484zm185.95 611.11c-12.094-41.25-33.094-74.062-67.031-109.64-38.719-40.875-71.156-64.969-97.969-84.844-50.203-37.219-79.547-59.016-90.188-153.56l-30.516-270.56c-1.3125-25.078 8.3906-45.984 21.656-57.891 8.6719-7.8281 20.438-12.891 31.266-8.5781 8.5312 3.375 16.172 12.469 20.953 28.781l8.8125 43.359c0.046874 0.28125 0.09375 0.51562 0.14062 0.75l55.219 271.31c3.6562 34.125 48.844 71.578 70.828 89.766 3.1875 2.625 5.9062 4.875 7.2188 6.0469 8.1094 7.0312 18.844-5.2969 10.688-12.375-21.656-18.797-65.531-51.984-71.953-81.656 24.844-21.328 62.812-13.641 100.08 3.7031 40.781 18.984 80.672 49.547 103.5 68.062 20.812 16.875 34.266 34.312 39.656 60.75l25.828 126.79zm248.48-12.609-44.953-77.859c-1.875-3.2812-6.2344-4.5-9.6562-2.5781l-240.56 138.89c-3.375 1.9688-4.5 6.375-2.625 9.6562l44.953 77.859c1.9688 3.5156 6.1406 4.4531 10.125 2.3438l240.19-138.66c3.3281-1.9219 4.5-6.3281 2.5781-9.6562zm-221.81 76.172c4.5938 8.0156 1.3594 18.375-5.4844 22.125-14.625 8.0625-28.172-5.0156-24.656-18.188 3.7969-14.062 22.828-16.594 30.141-3.9375zm9.1875-14.766 12.844-7.4062c9.3281-5.3906 17.531 8.7656 8.2031 14.156l-12.891 7.4531c6.7969 24.375-15.656 47.062-40.125 40.5-27.609-7.4062-33.656-44.953-7.875-60.141 12.938-7.5938 29.531-5.1094 39.844 5.4375zm614.86-905.26c-41.484-41.484-112.69-11.953-112.69 46.688 0 58.594 71.203 88.125 112.69 46.688 25.781-25.781 25.781-67.594 0-93.375zm-46.688-35.719c-45.516 0-82.406 36.891-82.406 82.406s36.891 82.406 82.406 82.406c45.516 0 82.406-36.891 82.406-82.406s-36.891-82.406-82.406-82.406zm-305.26-71.812c-9.75-9.75-26.531-2.8125-26.531 10.969s16.781 20.766 26.531 10.969c6.0938-6.0469 6.0938-15.891 0-21.938zm-160.31 143.26c-9.75-9.75-26.531-2.8125-26.531 10.969s16.781 20.766 26.531 10.969c6.0938-6.0469 6.0938-15.891 0-21.938zm226.78-70.031c-9.75-9.75-26.531-2.8125-26.531 10.969s16.781 20.766 26.531 10.969c6.0469-6.0469 6.0469-15.891 0-21.938zm19.875 2.7656v16.406h56.25l31.922 16.781 6.2812-15.188-32.391-17.062c-1.2188-0.65625-2.5312-0.9375-3.7969-0.9375zm87-42.094 11.578-11.578-17.156-17.156c-1.5938-1.5938-3.7031-2.3906-5.8125-2.3906h-142.13v16.406h138.79zm-46.406 128.53h-267.32v-16.406h267.32zm-442.64 0.14062c23.016 9.5625 10.922 15 41.578-7.5l11.344 11.344-14.062 19.172c-2.0625 2.8125-2.0625 6.5156-0.28125 9.2812 5.2969 8.25 9.1875 17.484 11.25 27.188 0.75 3.4219 3.5156 5.8594 6.7969 6.375l23.484 3.6094v16.031c-37.641 5.7656-25.172 1.0781-34.688 24.047-9.5625 23.016-15 10.922 7.5 41.578l-11.344 11.344-19.172-14.062c-2.8125-2.0625-6.4688-2.0625-9.2812-0.28125-8.25 5.2969-17.484 9.1875-27.188 11.25-3.4219 0.75-5.8594 3.5156-6.375 6.7969l-3.6094 23.484h-16.031c-5.7656-37.641-1.0781-25.172-24.047-34.688-23.016-9.5625-10.922-15-41.578 7.5l-11.344-11.344 14.062-19.172c2.0625-2.8125 2.0625-6.5156 0.28125-9.2812-5.2969-8.25-9.1875-17.484-11.25-27.188-0.75-3.4219-3.5156-5.8594-6.7969-6.375l-23.484-3.6094v-16.031c37.641-5.7656 25.172-1.0781 34.688-24.047 9.5625-23.016 15-10.922-7.5-41.578l11.344-11.344 19.172 14.062c2.8125 2.0625 6.5156 2.0625 9.2812 0.28125 8.25-5.2969 17.484-9.1406 27.188-11.25 3.4219-0.75 5.8594-3.5156 6.375-6.7969l3.6094-23.484h16.031c5.8125 37.641 1.125 25.172 24.047 34.688zm-5.0156 50.438c-24-24-65.156-6.8906-65.156 27s41.156 50.953 65.156 27c14.906-14.906 14.906-39.094 0-54zm-27-27.562c-30.141 0-54.562 24.422-54.562 54.562 0 48.469 58.875 72.891 93.141 38.578 34.312-34.266 9.8906-93.141-38.578-93.141zm348.98 286.78c3.5625-23.719 30.469-33.844 40.828-28.406 13.031 6.8438-6.4219 30.703-28.406 30.703v0.046875c-4.2656 0.046875-8.4844-0.75-12.422-2.3438z" fill="#702af4" fill-rule="evenodd"/>
</svg>
