<?xml version="1.0" encoding="UTF-8"?>
<svg width="1200pt" height="1200pt" version="1.1" viewBox="0 0 1200 1200" xmlns="http://www.w3.org/2000/svg">
 <path d="m584.46 299.65v75c0 6.2344-4.9922 11.297-11.227 11.297h-34.289c-6.2344 0-11.297-5.0391-11.297-11.297v-78.586c-45.633-15.75-60.117-74.203-25.242-109.08 11.953-11.953 28.5-19.406 46.641-19.406h52.617l99.727-41.461c7.4297-3.0469 15.539 2.5312 15.539 10.43h0.070312v194.2c0 7.7812-7.9688 13.828-16.266 10.102l-99.047-41.18h-17.227zm-43.664-23.32c8.2969 1.4062 23.32 0.79688 32.414 0.79688h19.406v-87.047h-43.594c-38.133 0-58.336 46.641-30.703 74.273 6.0703 6 13.781 10.312 22.477 11.977zm21.211 87.094v-63.773h-11.836v63.773zm53.062-177.12v94.617l79.383 32.953v-160.52zm-15.07-158.13c127.83 0 227.09 111.54 212.06 238.78h288.87c22.195 0 40.266 18.141 40.266 40.336v647.98c-0.070312 4.8516-0.9375 9.2344-2.6016 13.758l-3.2578 6.5859-0.25781 0.39844-1.9219 2.7891-0.25781 0.39844-1.1953 1.5234-0.32812 0.32812-0.32812 0.39844-0.65625 0.72656-0.98438 0.98438c-0.25781 0-6.0469 5.5781-7.5703 5.9766l-7.0312 3.3984c-2.7891 0.53906-5.0391 2.25-12.82 2.4609h-426.23v94.406h34.805l52.148-21.914c1.4531-0.58594 3.0469-1.0078 4.7109-1.0078h154.59c6.2344 0 11.297 5.0391 11.297 11.297v65.18c0 2.2031-0.25781 4.3125-0.72656 6.375h230.41c14.812 0 14.812 22.523 0 22.523h-1126c-14.812 0-14.812-22.523 0-22.523h230.41c-0.46875-2.0625-0.72656-4.1953-0.72656-6.375v-65.18c0-6.2344 5.0391-11.297 11.297-11.297h154.59c1.4531 0 2.9297 0.25781 4.3828 0.86719l52.477 22.055h34.805v-94.406h-425.18c-22.195 0-40.266-18.07-40.266-40.266v-647.44c0-22.195 18.07-40.336 40.266-40.336h288.87c-15.023-127.22 84.234-238.78 212.06-238.78zm208.22 261.3c-21.914 95.93-107.62 165.82-208.22 165.82s-186.28-69.891-208.22-165.82h-292.71c-9.7031 0-17.742 8.0391-17.742 17.812v571.83h218.44v-392.72c0-6.1875 5.0391-11.227 11.227-11.227h577.99c6.1875 0 11.227 5.0391 11.227 11.227v392.72h218.44v-571.83c0-9.7734-8.0391-17.812-17.742-17.812zm-73.148-182.77c-74.602-74.602-195.52-74.602-270.14 0-74.602 74.531-74.602 195.52 0 270.14 74.602 74.602 195.52 74.602 270.14 0 74.414-74.414 74.859-195.33 0-270.14zm-51.164 427.85h137.06c6.2344 0 11.297 4.9922 11.297 11.227v187.08c0 6.2344-5.0391 11.297-11.297 11.297h-137.06c-6.2344 0-11.297-5.0391-11.297-11.297v-187.08c0-6.2578 5.0625-11.227 11.297-11.227zm125.84 22.453h-114.61v164.62h114.61zm-514.29 592.29h609.09c3.3984-0.070313 6.2344-2.9297 6.2344-6.375v-53.953h-141.09l-52.5 21.984c-1.4062 0.60937-2.9297 0.9375-4.3828 0.9375h-225.61c-1.7344 0-3.2578-0.39844-4.7109-1.0547l-52.148-21.867h-141.12v53.953c0 3.375 2.8359 6.3047 6.2344 6.375zm93.867-578.34c-14.812 0-14.812-22.523 0-22.523h142.17c14.812 0 14.812 22.523 0 22.523zm0 255.33c-14.812 0-14.812-22.523 0-22.523h421.34c14.812 0 14.812 22.523 0 22.523zm0-75.469c-14.812 0-14.812-22.523 0-22.523h209.81c14.812 0 14.812 22.523 0 22.523zm0-75.422c-14.812 0-14.812-22.523 0-22.523h209.81c14.812 0 14.812 22.523 0 22.523zm488.39-177.7h-555.42v381.42h555.42zm-336.91 448.05c-14.812 0-14.812-22.523 0-22.523h118.38c14.883 0 14.883 22.523 0 22.523zm445.52-601.01c-14.812 0-14.812-22.453 0-22.453h57.727c14.812 0 14.812 22.453 0 22.453zm-131.2 0c-14.883 0-14.883-22.453 0-22.453h57.656c14.812 0 14.812 22.453 0 22.453zm-707.7 0c-14.883 0-14.883-22.453 0-22.453h90.609c14.812 0 14.812 22.453 0 22.453zm399.35 650.23v94.406h106.43v-94.406zm568.38-29.625c2.3203-3.1875 3.5156-6.7031 3.5156-10.641v-53.086h-1037.3v53.086c0 9.7734 8.0391 17.742 17.742 17.742h1001.9c7.9688 0 12.422-5.1797 12.492-5.1797l0.96094-0.96094 0.14063-0.21094 0.14062-0.14062c0.14063-0.21094 0.25781-0.32812 0.39844-0.53906z" fill="#702af4"/>
</svg>
