<?xml version="1.0" encoding="UTF-8"?>
<svg width="1200pt" height="1200pt" version="1.1" viewBox="0 0 1200 1200" xmlns="http://www.w3.org/2000/svg">
 <path d="m135.6 396.35v209.45c28.801 1.6328 57.004-8.6719 77.973-28.484 20.969-19.816 32.852-47.391 32.852-76.242 0-28.848-11.883-56.422-32.852-76.238-20.969-19.812-49.172-30.117-77.973-28.484zm963.6-194.89v599.22c0 4.6211-1.8359 9.0547-5.1016 12.32-3.2695 3.2695-7.6992 5.1055-12.32 5.1055h-963.58c-4.6172-0.007812-9.043-1.8477-12.305-5.1133s-5.0938-7.6953-5.0938-12.312v-599.22c0.003907-4.6172 1.8359-9.043 5.0977-12.305 3.2617-3.2656 7.6875-5.1016 12.301-5.1094h963.6c4.6133 0.007812 9.0391 1.8438 12.301 5.1094 3.2617 3.2617 5.0938 7.6875 5.0977 12.305zm-605.3 689.69-17.891 71.387h247.99l-17.891-71.387zm622.45-34.801h-1032.7c-6.7812-0.625-13.051-3.8789-17.469-9.0625-4.418-5.1797-6.6367-11.887-6.1836-18.68v-655.07c-0.44141-6.7852 1.7812-13.48 6.1992-18.652s10.68-8.418 17.453-9.043h1032.7c6.7734 0.625 13.035 3.8711 17.453 9.043s6.6406 11.867 6.1992 18.652v655.07c0.44531 6.7891-1.7773 13.484-6.1953 18.66-4.418 5.1719-10.68 8.418-17.457 9.0469zm-209.65 141.04h-613.39v56.785h613.39zm-228.93-521.55c-6.6953-6.6953-15.777-10.457-25.246-10.457s-18.547 3.7578-25.246 10.453c-6.6953 6.6953-10.453 15.777-10.453 25.246s3.7578 18.547 10.453 25.242c6.6992 6.6953 15.777 10.457 25.246 10.457s18.551-3.7617 25.246-10.457c6.6836-6.6992 10.438-15.777 10.438-25.242s-3.7539-18.543-10.438-25.242zm-336.18 72.07c-5.1914 22.137-14.027 43.258-26.145 62.496-1.9375 3.0742-2.8594 6.6758-2.6445 10.297 0.21484 3.625 1.5586 7.0898 3.8438 9.9141l40.043 52.055-33.422 33.422-52.391-40.297c-2.8477-2.2031-6.3125-3.4609-9.9062-3.6094-3.5977-0.14453-7.1523 0.83203-10.168 2.793-19.555 12.258-41.031 21.145-63.527 26.293-3.5625 0.80078-6.7812 2.707-9.1992 5.4414-2.4219 2.7344-3.918 6.1641-4.2773 9.7969l-8.4727 65.004h-29.711v-140.88c38.062 1.6562 75.148-12.309 102.67-38.656s43.082-62.793 43.082-100.89c0-38.098-15.562-74.543-43.082-100.89-27.52-26.348-64.605-40.312-102.67-38.656v-140.89h29.711l8.543 65.555c0.46094 3.5273 1.9961 6.8281 4.3945 9.457 2.3945 2.6289 5.5391 4.457 9.0117 5.2422 22.578 5.1406 44.129 14.066 63.73 26.402 3.0703 1.9336 6.6719 2.8594 10.297 2.6445s7.0898-1.5586 9.9102-3.8438l52.055-40.031 33.422 33.406-40.285 52.414c-2.1992 2.8516-3.457 6.3125-3.6055 9.9062-0.14844 3.5977 0.82031 7.1484 2.7773 10.172 12.02 19.199 20.809 40.246 26.016 62.289 0.57812 3.9922 2.5312 7.6562 5.5195 10.359 2.9922 2.707 6.832 4.2773 10.863 4.4492l64.152 8.3984v47.281l-64.152 8.3984v0.003907c-4.0273 0.1875-7.8594 1.7695-10.848 4.4727s-4.9453 6.3594-5.5352 10.348zm275.12-220.51c-4.5859-4.5859-10.805-7.1641-17.293-7.1641-6.4844 0-12.707 2.5781-17.293 7.1641-4.5859 4.5859-7.1641 10.809-7.1641 17.293 0 6.4883 2.5781 12.707 7.1641 17.293 4.5859 4.5859 10.809 7.1641 17.293 7.1641 6.4883 0 12.707-2.5781 17.293-7.1641 4.5781-4.5898 7.1484-10.809 7.1484-17.293s-2.5703-12.699-7.1484-17.293zm0 312.78c-4.5859-4.5898-10.812-7.168-17.301-7.1719-6.4883 0-12.715 2.5781-17.305 7.168s-7.168 10.812-7.168 17.301c0 6.4922 2.5781 12.715 7.168 17.305 4.5898 4.5859 10.816 7.1641 17.305 7.1641 6.4883 0 12.715-2.5781 17.301-7.168 4.582-4.5938 7.1523-10.812 7.1523-17.301 0-6.4844-2.5703-12.707-7.1523-17.297zm245.57-335.46h147.32c4.7734 0.25 9.4375-1.4688 12.906-4.7578 3.4648-3.293 5.4297-7.8633 5.4297-12.641 0-4.7812-1.9648-9.3516-5.4297-12.641-3.4688-3.2891-8.1328-5.0117-12.906-4.7617h-147.32c-6 0.31641-11.414 3.6992-14.328 8.9531-2.9102 5.2578-2.9102 11.641 0 16.895 2.9141 5.2539 8.3281 8.6406 14.328 8.9531zm-108.97 99.277h256.3c5.9961-0.31641 11.41-3.6992 14.324-8.9531 2.9102-5.2539 2.9102-11.641 0-16.895-2.9141-5.2539-8.3281-8.6367-14.324-8.9531h-256.3c-6 0.31641-11.414 3.6992-14.328 8.9531-2.9102 5.2539-2.9102 11.641 0 16.895 2.9141 5.2539 8.3281 8.6367 14.328 8.9531zm37.199 99.277h219.1c4.7734 0.25 9.4375-1.4727 12.906-4.7617 3.4648-3.2891 5.4297-7.8594 5.4297-12.641 0-4.7773-1.9648-9.3477-5.4297-12.641-3.4688-3.2891-8.1328-5.0078-12.906-4.7578h-219.04c-4.7734-0.25-9.4375 1.4688-12.906 4.7578-3.4688 3.293-5.4297 7.8633-5.4297 12.641 0 4.7812 1.9609 9.3516 5.4297 12.641 3.4688 3.2891 8.1328 5.0117 12.906 4.7617zm-590.4-284.4 864.3-0.003906v564.41h-864.3l6.6719-51.133c18.215-5.082 35.758-12.336 52.246-21.602l54.18 41.594c3.3203 2.9883 7.6602 4.5898 12.129 4.4688 4.4648-0.11719 8.7148-1.9453 11.871-5.1055l54.973-54.973c2.9805-3 4.7656-6.9766 5.0312-11.195 0.26172-4.2188-1.0195-8.3906-3.6016-11.734l-42.445-55.199v-0.003907c6.2852-11.188 11.648-22.863 16.043-34.918l86.305 86.316c3.2617 3.2656 7.6953 5.1016 12.312 5.0977h76.922-0.003906c5.6055 18.258 19.656 32.699 37.754 38.801 18.098 6.0977 38.027 3.1094 53.539-8.0312 15.508-11.141 24.707-29.07 24.707-48.168 0-19.098-9.1992-37.027-24.707-48.168-15.512-11.141-35.441-14.129-53.539-8.0312-18.098 6.1016-32.148 20.543-37.754 38.797h-69.73l-76.922-76.922 44.281-5.7852v0.003906c4.4688-0.21094 8.6797-2.1328 11.77-5.3711 3.0859-3.2344 4.8125-7.5312 4.8164-12.004v-21.516h127.2c5.7031 22.402 22.02 40.59 43.676 48.676 21.66 8.0898 45.902 5.0508 64.895-8.1289s30.32-34.828 30.32-57.945c0-23.121-11.328-44.77-30.32-57.949-18.992-13.18-43.234-16.219-64.895-8.1289-21.656 8.0859-37.973 26.273-43.676 48.676h-127.2v-21.48c-0.011719-4.2188-1.5586-8.293-4.3477-11.461-2.7891-3.168-6.6367-5.2148-10.82-5.7578l-45.695-6 76.922-76.922h69.707-0.003906c5.6055 18.258 19.656 32.699 37.754 38.801 18.098 6.0977 38.023 3.1094 53.535-8.0312s24.711-29.07 24.711-48.168c0-19.098-9.1992-37.027-24.711-48.168s-35.438-14.129-53.535-8.0312c-18.098 6.1016-32.148 20.543-37.754 38.801h-76.922 0.003907c-4.6211-0.011719-9.0547 1.8242-12.312 5.0977l-86.281 86.305c-4.4062-12.062-9.7891-23.746-16.09-34.934l41.652-54.156c2.9922-3.3164 4.5977-7.6562 4.4766-12.125-0.11719-4.4688-1.9492-8.7188-5.1133-11.875l-54.973-54.973v0.003906c-2.9961-2.9844-6.9766-4.7734-11.199-5.0352-4.2188-0.26172-8.3906 1.0195-11.734 3.6055l-55.199 42.434c-16.488-9.2656-34.031-16.52-52.246-21.602z" fill="#702af4" fill-rule="evenodd"/>
</svg>
