<?xml version="1.0" encoding="UTF-8"?>
<svg width="1200pt" height="1200pt" version="1.1" viewBox="0 0 1200 1200" xmlns="http://www.w3.org/2000/svg">
 <path d="m639.57 165.66h-79.152c-6.9258 0-12.551-5.6172-12.551-12.551 0-6.9375 5.6172-12.551 12.551-12.551h79.152c6.9258 0 12.551 5.6172 12.551 12.551 0.003906 6.9336-5.625 12.551-12.551 12.551z" fill="#0940ff"/>
 <path d="m600 1088.6c-25.945 0-47.051-21.109-47.051-47.051 0-25.945 21.109-47.051 47.051-47.051 25.945 0 47.051 21.109 47.051 47.051s-21.105 47.051-47.051 47.051zm0-69.012c-12.109 0-21.961 9.8516-21.961 21.961s9.8516 21.961 21.961 21.961 21.961-9.8516 21.961-21.961-9.8516-21.961-21.961-21.961z" fill="#0940ff"/>
 <path d="m885.12 60h-570.24c-6.8984 0-12.551 5.6406-12.551 12.551v1054.9c0 6.8984 5.6523 12.551 12.551 12.551h570.24c6.8984 0 12.551-5.6406 12.551-12.551l0.003906-1054.9c0-6.9102-5.6523-12.551-12.551-12.551zm-12.555 1054.9h-545.13v-144.29h545.15l-0.003906 144.29zm-84.562-723.93v28.223h-133.12c-6.8984 0-12.551 5.6406-12.551 12.551 0 23.34-18.949 42.406-42.406 42.406-23.34 0-42.289-19.066-42.289-42.406 0-6.8984-5.6406-12.551-12.551-12.551h-133.09v-28.223zm-354.94-25.094v-26.102h330.35v26.102zm100.63 78.422c5.8906 31.234 33.371 54.949 66.238 54.949 33 0 60.469-23.711 66.371-54.949h143.79v501.23h-420.31v-501.23zm338.87 501.23h-37.391v-513.78c0-6.8984-5.5195-12.551-12.551-12.551h-9.5391v-40.777c0-6.8984-5.6406-12.551-12.551-12.551h-12.047v-38.641c0-7.0312-5.5195-12.551-12.551-12.551h-355.44c-6.8984 0-12.551 5.5195-12.551 12.551v38.641h-8.5312c-7.0312 0-12.551 5.6406-12.551 12.551v40.777h-9.6602c-6.8984 0-12.551 5.6406-12.551 12.551v513.78h-37.262l-0.007813-698.83h545.15v698.83zm0-723.92h-545.13v-136.51h545.15l-0.003906 136.51z" fill="#0940ff"/>
 <path d="m461.54 916.63c-6.9258 0-12.551-5.6172-12.551-12.551v-95.664c0-6.9258 5.6172-12.551 12.551-12.551 6.9375 0 12.551 5.6172 12.551 12.551v95.664c0.003906 6.9219-5.6133 12.551-12.551 12.551z" fill="#0940ff"/>
 <path d="m499.97 916.63c-6.9258 0-12.551-5.6172-12.551-12.551v-95.664c0-6.9258 5.6172-12.551 12.551-12.551 6.9258 0 12.551 5.6172 12.551 12.551v95.664c0 6.9219-5.6172 12.551-12.551 12.551z" fill="#0940ff"/>
 <path d="m532.91 916.63c-6.9258 0-12.551-5.6172-12.551-12.551v-95.664c0-6.9258 5.6172-12.551 12.551-12.551 6.9258 0 12.551 5.6172 12.551 12.551v95.664c-0.007812 6.9219-5.625 12.551-12.551 12.551z" fill="#0940ff"/>
 <path d="m572.11 916.63c-6.9258 0-12.551-5.6172-12.551-12.551v-95.664c0-6.9258 5.6172-12.551 12.551-12.551 6.9375 0 12.551 5.6172 12.551 12.551v95.664c-0.011718 6.9219-5.6289 12.551-12.551 12.551z" fill="#0940ff"/>
 <path d="m609.76 916.63c-6.9258 0-12.551-5.6172-12.551-12.551v-95.664c0-6.9258 5.6172-12.551 12.551-12.551 6.9258 0 12.551 5.6172 12.551 12.551v95.664c-0.011719 6.9219-5.6289 12.551-12.551 12.551z" fill="#0940ff"/>
 <path d="m655.54 916.63c-6.9258 0-12.551-5.6172-12.551-12.551v-95.664c0-6.9258 5.6172-12.551 12.551-12.551 6.9258 0 12.551 5.6172 12.551 12.551v95.664c0.003906 6.9219-5.6133 12.551-12.551 12.551z" fill="#0940ff"/>
 <path d="m686.86 916.63c-6.9258 0-12.551-5.6172-12.551-12.551v-95.664c0-6.9258 5.6172-12.551 12.551-12.551 6.9258 0 12.551 5.6172 12.551 12.551v95.664c0 6.9219-5.6133 12.551-12.551 12.551z" fill="#0940ff"/>
 <path d="m726.85 916.63c-6.9258 0-12.551-5.6172-12.551-12.551v-95.664c0-6.9258 5.6172-12.551 12.551-12.551 6.9258 0 12.551 5.6172 12.551 12.551v95.664c0 6.9219-5.625 12.551-12.551 12.551z" fill="#0940ff"/>
 <path d="m723.74 698.36h-250.93c-6.9258 0-12.551-5.6172-12.551-12.551 0-6.9375 5.6172-12.551 12.551-12.551h250.93c6.9258 0 12.551 5.6172 12.551 12.551s-5.6289 12.551-12.555 12.551z" fill="#0940ff"/>
 <path d="m639.1 745.34h-81.637c-6.9258 0-12.551-5.6172-12.551-12.551 0-6.9258 5.6172-12.551 12.551-12.551h81.637c6.9258 0 12.551 5.6172 12.551 12.551 0 6.9219-5.6172 12.551-12.551 12.551z" fill="#0940ff"/>
 <path d="m598.29 642.42c-31.129 0-56.461-25.32-56.461-56.461 0-31.129 25.332-56.461 56.461-56.461s56.461 25.32 56.461 56.461c-0.003906 31.129-25.336 56.461-56.461 56.461zm0-87.828c-17.293 0-31.367 14.074-31.367 31.367 0 17.293 14.074 31.367 31.367 31.367 17.293 0 31.367-14.074 31.367-31.367-0.011719-17.293-14.078-31.367-31.367-31.367z" fill="#0940ff"/>
</svg>
