<?xml version="1.0" encoding="UTF-8"?>
<svg width="1200pt" height="1200pt" version="1.1" viewBox="0 0 1200 1200" xmlns="http://www.w3.org/2000/svg">
 <path d="m812.16 610.6h-424.36c-6.6094 0-12-5.3906-12-12v-66.797c0-86.016 69.984-156 156-156h136.36c86.016 0 156 69.984 156 156v66.797c0 6.6094-5.3438 12-12 12zm-412.36-24h400.36v-54.797c0-72.797-59.203-132-132-132h-136.36c-72.797 0-132 59.203-132 132z" fill="#702af4"/>
 <path d="m600 346.82c-66.094 0-119.81-53.766-119.81-119.81v-34.688c0-66.094 53.766-119.81 119.81-119.81 66.094 0 119.81 53.766 119.81 119.81v34.688c0 66.047-53.719 119.81-119.81 119.81zm0-250.36c-52.828 0-95.812 42.984-95.812 95.812v34.688c0 52.828 42.984 95.812 95.812 95.812s95.812-42.984 95.812-95.812v-34.688c0-52.828-42.984-95.812-95.812-95.812z" fill="#702af4"/>
 <path d="m1112.6 552.14c-31.641-31.641-83.344-31.453-115.31 0.51562-0.46875 0.46875-0.9375 0.98438-1.4531 1.5938l-149.76 149.76c-16.312-14.578-33-17.719-54-17.719h-1.0781c-23.344 0.09375-168.24 4.4062-174.37 4.5938-33.188 0.89062-64.828-4.2188-93.938-15.188-66.188-24.844-195.66-48.234-318.89 75l-136.08 136.03c-4.6875 4.6875-4.6875 12.281 0 16.969l201.47 201.47c2.3438 2.3438 5.4375 3.5156 8.4844 3.5156s6.1406-1.1719 8.4844-3.5156l115.73-115.73 301.69 8.25c48.75 1.125 95.859-17.625 130.22-52.031l277.36-277.4c0.23438-0.1875 0.65625-0.60938 0.89062-0.84375 15.469-15.469 24-35.953 24.141-57.703s-8.25-42.188-23.578-57.562zm-16.922 97.828c-0.23438 0.1875-0.75 0.65625-0.9375 0.89062l-277.87 277.82c-29.766 29.719-70.828 46.5-112.59 45l-306.84-8.4375c-3.375-0.046875-6.4688 1.1719-8.8125 3.5156l-110.91 110.91-184.55-184.45 127.6-127.6c113.72-113.72 232.69-92.344 293.48-69.469 32.062 12.094 66.75 17.719 103.08 16.734 1.5-0.046875 150.74-4.4531 173.81-4.5938 20.531 0.28125 30.656 3.1875 41.531 14.062 19.406 19.406 19.172 51.094-0.46875 70.734-8.8594 8.8125-19.875 14.719-33.094 14.719-0.32813 0-235.26-0.65625-235.26-0.65625h-0.046875c-6.6094 0-12 5.3438-12 11.953s5.3438 12 11.953 12.047c0 0 228.19 0.51562 238.31 0.51562 18.234 0 34.5-8.9531 47.156-21.609 14.016-14.016 21.797-32.625 21.891-52.359 0.09375-13.219-3.2812-25.875-9.7031-36.984l151.64-151.64 1.2656-1.4062c22.594-22.594 59.062-22.781 81.375-0.51562 10.781 10.781 16.688 25.172 16.594 40.5-0.14062 15.375-6.1875 29.906-16.594 40.312z" fill="#702af4"/>
</svg>
