<?xml version="1.0" encoding="UTF-8"?>
<svg width="1200pt" height="1200pt" version="1.1" viewBox="0 0 1200 1200" xmlns="http://www.w3.org/2000/svg">
 <path d="m470.44 740.44c-53.344-53.344-139.78-53.344-193.13 0-53.25 53.344-53.25 139.78 0 193.13 53.344 53.25 139.78 53.25 193.13 0 53.344-53.344 53.344-139.78 0-193.13zm-96.562-61.031c87.047 0 157.69 70.547 157.69 157.6 0 87.094-70.594 157.69-157.69 157.69s-157.69-70.547-157.69-157.69c0.046875-87.047 70.594-157.6 157.69-157.6zm85.453-48.938c-10.688-4.4531-21.844-8.1094-33.422-10.828-4.4531-0.9375-7.9688-4.6406-8.3438-9.4688l-3.75-42.797h-79.875l-3.7969 42.797c-0.32812 4.4531-3.5156 8.2969-8.0625 9.375-11.719 2.8125-22.969 6.4688-33.75 10.922-10.922 4.5-21.281 9.8438-31.125 15.844-3.7969 2.7188-9.0938 2.625-12.844-0.5625l-32.953-27.656-56.531 56.531 27.656 32.906c2.8594 3.375 3.3281 8.3438 0.9375 12.281-11.766 19.031-22.125 43.031-27.047 65.109-0.9375 4.4531-4.6406 7.9688-9.4219 8.3438l-42.797 3.75v79.875l42.797 3.7969c4.4531 0.32812 8.2969 3.5156 9.375 8.0625 2.8125 11.719 6.4688 22.969 10.922 33.75 4.5 10.922 9.8438 21.281 15.844 31.125 2.7188 3.7969 2.625 9.0938-0.46875 12.844l-27.703 32.953 56.531 56.531 32.953-27.656c3.3281-2.8594 8.2969-3.3281 12.234-0.84375 19.078 11.719 43.125 22.031 65.156 27 4.4531 0.9375 7.875 4.6406 8.2969 9.4688l3.7969 42.797h79.875l3.75-42.797c0.375-4.4531 3.5156-8.2969 8.0625-9.375 11.719-2.8125 22.969-6.4688 33.75-10.922 10.922-4.5 21.328-9.8438 31.125-15.844 3.8438-2.7188 9.0938-2.625 12.891 0.46875l32.953 27.703 56.438-56.531-27.656-32.953c-2.8594-3.3281-3.3281-8.2969-0.84375-12.234 11.719-19.031 22.031-43.031 27-65.156 0.9375-4.4062 4.6875-7.875 9.4688-8.2969l42.797-3.7969v-79.875l-42.797-3.75c-4.4062-0.375-8.2969-3.5156-9.375-8.0625-2.7188-11.719-6.4688-22.969-10.922-33.75-4.5-10.922-9.8438-21.328-15.844-31.125-2.7188-3.8438-2.625-9.0938 0.5625-12.891l27.656-32.906-56.438-56.531-32.953 27.656c-3.375 2.8594-8.3438 3.3281-12.281 0.84375-10.125-6.0469-20.672-11.484-31.828-16.125zm642.37-268.13h-100.5c-37.406 0-68.062 30.656-68.062 68.062v100.97zm-468.42 322.78h344.39c26.578 0 25.969-39.938 0-39.938h-344.39c-27.609 0-21.891 39.938 0 39.938zm42.562-61.078h259.31l-19.969-56.672h-219.28zm109.97-115.83c-13.875 0-13.875-21.094 0-21.094h39.375c13.875 0 13.875 21.094 0 21.094zm-461.16 329.63c-8.2969-11.109 8.5781-23.719 16.875-12.656l19.5 26.109 45.656-52.312c3.8438-4.4062 10.5-4.7812 14.812-1.0312 4.4062 3.8438 4.8281 10.5 1.0312 14.812l-55.781 63.656c-4.6406 3.4688-11.297 2.5312-14.719-2.1562zm404.72 266.63h373.78c7.4062 0 13.594-6.0938 13.594-13.547v-72.656c0-7.4062-6.1875-13.594-13.594-13.594h-373.78c-7.4062 0-13.547 6.1875-13.547 13.594v72.656c0 7.4531 6.0938 13.547 13.547 13.547zm131.34-39.375c-13.875 0-13.875-21.094 0-21.094h208.13c13.875 0 13.875 21.094 0 21.094zm-96.984 0c-13.875 0-13.875-21.094 0-21.094h37.969c13.875 0 13.875 21.094 0 21.094zm-34.359-148.87h373.78c7.4062 0 13.594-6.1875 13.594-13.594v-72.656c0-7.4062-6.1875-13.547-13.594-13.547h-373.78c-7.4062 0-13.547 6.0938-13.547 13.547v72.656c0 7.4062 6.0938 13.594 13.547 13.594zm131.34-39.375c-13.875 0-13.875-21.094 0-21.094h208.13c13.875 0 13.875 21.094 0 21.094zm-96.984 0c-13.875 0-13.875-21.094 0-21.094h37.969c13.875 0 13.875 21.094 0 21.094zm307.74 106.69v-46.219h-310.4v46.219zm-144.66-208.6c0 13.875-21.094 13.875-21.094 0v-42.188c0-13.875 21.094-13.875 21.094 0zm-432.37-320.34v23.625c0 37.406 30.656 68.062 67.969 68.062h349.6v-91.922c-139.18-0.046875-278.34 0.23438-417.56 0.23438zm110.3-21.375h307.26v-2.8594c0-49.031 40.125-89.062 89.156-89.062h115.31l0.046875-179.86c0-37.312-30.656-68.062-68.062-68.062h-486.05c-24.984 0-47.297 13.781-59.203 34.688h67.031c21.094 0 38.531 17.438 38.531 38.625v249.32c0.046875 6.1875-1.4531 12.047-4.0312 17.203zm-231.79-283.97v106.78l47.906-19.078c2.3906-0.9375 5.1562-1.0312 7.7812 0l47.906 19.078v-106.78zm124.69 0v122.26c0 7.125-7.2188 13.078-15.375 9.375l-57.609-22.875-58.453 23.25c-6.9375 2.7188-14.344-2.5312-14.344-9.75l-0.09375-122.26h-72.609c-9.6562 0-17.484 7.8281-17.484 17.484v249.32c0 9.5625 7.8281 17.438 17.484 17.438 98.062 0 195.98-0.1875 294.05-0.1875 8.25-1.4531 14.484-8.7656 14.484-17.203l0.046875-249.42c0-9.6562-7.875-17.484-17.484-17.484h-72.609zm-0.65625 243.84c-13.875 0-13.875-21.094 0-21.094h56.25c13.875 0 13.875 21.094 0 21.094zm-392.72 273.74c0 13.875-21.094 13.875-21.094 0l0.046875-375.52c0-5.8594 4.6875-10.594 10.594-10.594h120.56c13.875 0 13.875 21.094 0 21.094l-110.11 0.046876z" fill="#702af4"/>
</svg>
