<?xml version="1.0" encoding="UTF-8"?>
<svg width="1200pt" height="1200pt" version="1.1" viewBox="0 0 1200 1200" xmlns="http://www.w3.org/2000/svg">
 <path d="m997.29 292.86h-24v570.35l-73.766 47.219v62.426h-608.03c-5.3516-39.359-36.539-70.559-75.91-75.898l-0.003906-573.83 73.766-45.406v-62.566h608.03c5.8906 43.297 43.02 76.812 87.91 76.812 48.973 0 88.801-39.84 88.801-88.812s-39.828-88.812-88.801-88.812c-44.891 0-82.02 33.504-87.91 76.812l-608.03-0.003906v-62.426l-85.766-54.898-85.754 54.898 0.003906 148.72 73.754 49.164v570.35c-43.297 5.8789-76.801 43.008-76.801 87.898 0 48.973 39.84 88.801 88.801 88.801 44.891 0 82.02-33.504 87.91-76.801h608.03v62.281l82.57 55.031 88.969-54.758v-148.98l-73.766-47.219 0.003906-570.35zm-12-154.52c35.734 0 64.801 29.074 64.801 64.812 0 35.746-29.074 64.812-64.801 64.812-35.746 0-64.812-29.074-64.812-64.812 0-35.738 29.074-64.812 64.812-64.812zm-843.47 126.25v-122.74l61.754-39.527 61.766 39.527v122.46l-64.441 39.66zm61.762 785.07c-35.734 0-64.801-29.074-64.801-64.801 0-35.746 29.062-64.812 64.801-64.812 35.746 0 64.812 29.074 64.812 64.812 0 35.727-29.074 64.801-64.812 64.801zm843.48-126.11v122.46l-64.453 39.66-59.09-39.371 0.003906-122.75 61.766-39.516z" fill="#702af4"/>
 <path d="m589.79 890.04c110.96 0 212.07-65.148 258.8-164.33l10.379 23.809c1.9688 4.5117 6.3711 7.2109 11.016 7.2109 1.5977 0 3.2266-0.3125 4.7773-0.99609 6.0859-2.6523 8.8555-9.7305 6.2148-15.793l-21.781-49.98c-1.957-4.5-6.5273-7.6445-11.387-7.1992l-54 1.7266c-6.625 0.21484-11.82 5.7461-11.605 12.371 0.20312 6.625 5.7852 12.254 12.371 11.605l35.855-1.1406c-41.012 95.414-135.99 158.71-240.64 158.71-6.625 0-12 5.3633-12 12 0 6.6367 5.375 12 12 12z" fill="#702af4"/>
 <path d="m601.79 330.04c0-6.625-5.375-12-12-12-118.67 0-222.73 71.484-265.75 180.09l-11.062-23.93c-2.7852-6.0234-9.9375-8.6523-15.926-5.8555-6.0117 2.7852-8.6406 9.9102-5.8555 15.926l22.871 49.488c1.9688 4.2617 6.2383 6.9727 10.883 6.9727 0.21484 0 0.43359 0 0.64844-0.011718l53.953-2.9023c6.6133-0.35938 11.699-6.0117 11.34-12.625-0.35938-6.6133-6.0117-11.578-12.625-11.34l-34.992 1.8828c37.211-104.3 134.71-173.68 246.52-173.68 6.6406-0.015625 12.004-5.3789 12.004-12.016z" fill="#702af4"/>
 <path d="m414.93 877.75c2.0156 4.3906 6.3594 6.9727 10.895 6.9727 1.6914 0 3.3945-0.34766 5.0156-1.1055l49.5-22.848c4.4648-2.0625 7.2227-6.6367 6.9609-11.543l-2.8789-53.953c-0.34766-6.625-6.0586-11.676-12.625-11.34-6.625 0.35938-11.699 6.0117-11.34 12.637l1.9453 36.312c-83.27-46.332-134.61-132.9-134.61-228.83 0-6.625-5.375-12-12-12s-12 5.375-12 12c0 102.52 53.629 195.32 141.16 246.62l-24.156 11.16c-6.0234 2.7578-8.6523 9.8945-5.8672 15.91z" fill="#702af4"/>
 <path d="m751.36 330.59c-2.0625-6.2891-8.8086-9.7812-15.145-7.668l-46.906 15.371c-4.5977 1.5-7.8359 5.6289-8.2305 10.453l-3.3711 42.312c-0.52734 6.6133 4.4023 12.395 11.016 12.926 0.3125 0.023437 0.64844 0.035156 0.96094 0.035156 6.2031 0 11.449-4.7656 11.953-11.039l1.9805-24.805c90.383 43.621 148.18 134.71 148.18 235.88 0 6.625 5.3633 12 12 12 6.6367 0 12-5.375 12-12 0-106.41-58.547-202.63-151.07-252.1l18.973-6.2148c6.293-2.0781 9.7266-8.8594 7.6602-15.156z" fill="#702af4"/>
</svg>
