<?xml version="1.0" encoding="UTF-8"?>
<svg width="1200pt" height="1200pt" version="1.1" viewBox="0 0 1200 1200" xmlns="http://www.w3.org/2000/svg">
 <path d="m956.25 595.31c0-23.477-2.418-46.367-6.75-68.586h-23.137c-15.148 0-27.805-10.332-32.398-24.77-5.3438-16.82-12.094-33-20.117-48.43-6.9922-13.461-5.3438-29.758 5.3828-40.48l16.445-16.445c-25.762-38.25-58.742-71.23-96.992-96.992l-16.445 16.445c-10.727 10.727-27.02 12.395-40.48 5.3828-15.43-8.0234-31.613-14.773-48.43-20.117-14.438-4.5938-24.77-17.25-24.77-32.398v-23.137c-22.199-4.332-45.113-6.75-68.586-6.75-23.477 0-46.367 2.418-68.586 6.75v23.137c0 15.148-10.332 27.805-24.77 32.398-16.82 5.3438-33 12.094-48.43 20.117-13.461 6.9922-29.758 5.3438-40.48-5.3828l-16.445-16.445c-38.25 25.762-71.23 58.742-96.992 96.992l16.445 16.445c10.727 10.727 12.395 27.02 5.3828 40.48-8.0234 15.43-14.773 31.613-20.117 48.43-4.5938 14.438-17.25 24.77-32.398 24.77h-23.137c-4.332 22.199-6.75 45.113-6.75 68.586 0 23.477 2.418 46.367 6.75 68.586h23.137c15.148 0 27.805 10.332 32.398 24.77 5.3438 16.82 12.094 33 20.117 48.43 6.9922 13.461 5.3438 29.758-5.3828 40.48l-16.445 16.445c25.762 38.25 58.727 71.23 96.992 96.992l16.445-16.445c10.727-10.727 27.02-12.395 40.48-5.3828 15.43 8.0234 31.613 14.773 48.43 20.117 14.438 4.5938 24.77 17.25 24.77 32.398v23.137c22.199 4.332 45.113 6.75 68.586 6.75 23.477 0 46.367-2.418 68.586-6.75v-23.137c0-15.148 10.332-27.805 24.77-32.398 16.82-5.3438 33-12.094 48.43-20.117 13.461-6.9922 29.758-5.3438 40.48 5.3828l16.445 16.445c38.25-25.762 71.23-58.742 96.992-96.992l-16.445-16.445c-10.727-10.727-12.395-27.02-5.3828-40.48 8.0234-15.43 14.773-31.613 20.117-48.43 4.5938-14.438 17.25-24.77 32.398-24.77h23.137c4.332-22.199 6.75-45.113 6.75-68.586zm-356.25 225c-124.26 0-225-100.74-225-225s100.74-225 225-225 225 100.74 225 225-100.74 225-225 225z" fill="#702af4"/>
 <path d="m640.55 553.67-40.555-80.23-40.555 80.23-90.695 12.883 65.625 62.457-15.488 88.18 81.113-41.645 81.113 41.645-15.488-88.18 65.625-62.457z" fill="#702af4"/>
 <path d="m243.75 131.25c0 62.133-50.367 112.5-112.5 112.5s-112.5-50.367-112.5-112.5 50.367-112.5 112.5-112.5 112.5 50.367 112.5 112.5" fill="#702af4"/>
 <path d="m1068.8 18.75-112.5 187.5h225z" fill="#702af4"/>
 <path d="m18.75 975h206.25v206.25h-206.25z" fill="#702af4"/>
 <path d="m1068.8 996.98c-27.582-60.77-121.88-53.551-121.88 21.844 0 72.188 95.961 144.36 121.88 162.45 25.914-18.074 121.88-90.262 121.88-162.45 0-75.375-94.293-82.613-121.88-21.844z" fill="#702af4"/>
 <path d="m909.38 131.25-112.5-75v56.25h-496.88v37.5h496.88v56.25z" fill="#702af4"/>
 <path d="m403.12 993.75-112.5 75 112.5 75v-56.25h478.12v-37.5h-478.12z" fill="#702af4"/>
 <path d="m1050 262.5v525h-56.25l75 112.5 75-112.5h-56.25v-525z" fill="#702af4"/>
 <path d="m150 900v-487.5h56.25l-75-112.5-75 112.5h56.25v487.5z" fill="#702af4"/>
</svg>
