<?xml version="1.0" encoding="UTF-8"?>
<svg width="1200pt" height="1200pt" version="1.1" viewBox="0 0 1200 1200" xmlns="http://www.w3.org/2000/svg">
 <path d="m196.88 928.12c0 36.242-29.383 65.625-65.625 65.625s-65.625-29.383-65.625-65.625 29.383-65.625 65.625-65.625 65.625 29.383 65.625 65.625" fill="#702af4"/>
 <path d="m468.75 1068.8c0-19.891-7.9023-38.969-21.969-53.031-14.062-14.066-33.141-21.969-53.031-21.969h-75c-19.891 0-38.969 7.9023-53.031 21.969-14.066 14.062-21.969 33.141-21.969 53.031 0-19.891-7.9023-38.969-21.969-53.031-14.062-14.066-33.141-21.969-53.031-21.969h-75c-19.891 0-38.969 7.9023-53.031 21.969-14.066 14.062-21.969 33.141-21.969 53.031v112.5h450z" fill="#702af4"/>
 <path d="m421.88 928.12c0 36.242-29.383 65.625-65.625 65.625s-65.625-29.383-65.625-65.625 29.383-65.625 65.625-65.625 65.625 29.383 65.625 65.625" fill="#702af4"/>
 <path d="m1106.2 993.75h-75c-19.891 0-38.969 7.9023-53.031 21.969-14.066 14.062-21.969 33.141-21.969 53.031v112.5h225v-112.5c0-19.891-7.9023-38.969-21.969-53.031-14.062-14.066-33.141-21.969-53.031-21.969z" fill="#702af4"/>
 <path d="m1134.4 928.12c0 36.242-29.383 65.625-65.625 65.625s-65.625-29.383-65.625-65.625 29.383-65.625 65.625-65.625 65.625 29.383 65.625 65.625" fill="#702af4"/>
 <path d="m1143.8 600v-562.5c0.003906-4.9727-1.9727-9.7461-5.4883-13.262s-8.2891-5.4922-13.262-5.4883h-1050c-4.9727-0.003906-9.7461 1.9727-13.262 5.4883s-5.4922 8.2891-5.4883 13.262v562.5c-0.003906 4.9727 1.9727 9.7461 5.4883 13.262s8.2891 5.4922 13.262 5.4883h1050c4.9727 0.003906 9.7461-1.9727 13.262-5.4883s5.4922-8.2891 5.4883-13.262zm-37.5-18.75h-1012.5v-525h1012.5z" fill="#702af4"/>
 <path d="m937.5 806.25v-112.5c0-4.9727-1.9766-9.7422-5.4922-13.258-3.5156-3.5156-8.2852-5.4922-13.258-5.4922h-150c-4.9727 0-9.7422 1.9766-13.258 5.4922-3.5156 3.5156-5.4922 8.2852-5.4922 13.258v112.5c0 4.9727 1.9766 9.7422 5.4922 13.258 3.5156 3.5156 8.2852 5.4922 13.258 5.4922h37.5l93.75 75-18.75-75h37.5c4.9727 0 9.7422-1.9766 13.258-5.4922 3.5156-3.5156 5.4922-8.2852 5.4922-13.258z" fill="#702af4"/>
 <path d="m618.75 825h37.5c4.9727 0 9.7422-1.9766 13.258-5.4922 3.5156-3.5156 5.4922-8.2852 5.4922-13.258v-112.5c0-4.9727-1.9766-9.7422-5.4922-13.258-3.5156-3.5156-8.2852-5.4922-13.258-5.4922h-150c-4.9727 0-9.7422 1.9766-13.258 5.4922-3.5156 3.5156-5.4922 8.2852-5.4922 13.258v112.5c0 4.9727 1.9766 9.7422 5.4922 13.258 3.5156 3.5156 8.2852 5.4922 13.258 5.4922h37.5l-18.75 75z" fill="#702af4"/>
 <path d="m890.62 450h18.75c9.9453 0 19.484-3.9492 26.516-10.984 7.0352-7.0312 10.984-16.57 10.984-26.516h-93.75c0 9.9453 3.9492 19.484 10.984 26.516 7.0312 7.0352 16.57 10.984 26.516 10.984z" fill="#702af4"/>
 <path d="m853.12 343.25v31.754h93.75v-31.754c23.988-13.855 40.621-37.613 45.43-64.898 4.8086-27.281-2.6992-55.293-20.508-76.516-17.809-21.223-44.094-33.477-71.797-33.477s-53.988 12.254-71.797 33.477c-17.809 21.223-25.316 49.234-20.508 76.516 4.8086 27.285 21.441 51.043 45.43 64.898z" fill="#702af4"/>
 <path d="m881.25 93.75h37.5v37.5h-37.5z" fill="#702af4"/>
 <path d="m1031.2 225h37.5v37.5h-37.5z" fill="#702af4"/>
 <path d="m731.25 225h37.5v37.5h-37.5z" fill="#702af4"/>
 <path d="m767.41 144.51 26.516-26.516 26.516 26.516-26.516 26.516z" fill="#702af4"/>
 <path d="m979.56 144.51 26.516-26.516 26.516 26.516-26.516 26.516z" fill="#702af4"/>
 <path d="m190.19 463.73 27.32-15.773h0.003906c2.957-1.7734 6.3555-2.668 9.8008-2.582 3.4453 0.082031 6.7969 1.1406 9.6641 3.0547 5.2891 3.6836 10.883 6.9062 16.723 9.6328 3.0938 1.5273 5.6875 3.9023 7.4805 6.8477 1.7969 2.9414 2.7188 6.3359 2.6641 9.7852v31.559h75v-31.562c-0.058594-3.4453 0.86328-6.8398 2.6602-9.7812 1.7969-2.9453 4.3906-5.3203 7.4805-6.8477 5.8438-2.7266 11.438-5.9492 16.727-9.6367 2.8672-1.9102 6.2188-2.9688 9.6641-3.0547 3.4453-0.082032 6.8438 0.8125 9.8008 2.582l27.32 15.777 37.5-64.953-38.109-22.004c2.6094-13.555 2.6094-27.484 0-41.039l38.109-22.004-37.5-64.953-27.32 15.773c-2.957 1.7695-6.3555 2.668-9.8008 2.582-3.4453-0.082031-6.7969-1.1406-9.6641-3.0547-5.2891-3.6836-10.887-6.9102-16.727-9.6328-3.0898-1.5312-5.6875-3.9023-7.4805-6.8477-1.7969-2.9453-2.7188-6.3359-2.6641-9.7852v-31.559h-75v31.559c0.058594 3.4492-0.86328 6.8438-2.6602 9.7852-1.7969 2.9453-4.3906 5.3203-7.4805 6.8477-5.8438 2.7266-11.438 5.9492-16.727 9.6367-2.8672 1.9102-6.2188 2.9688-9.6641 3.0547-3.4453 0.082032-6.8438-0.8125-9.8008-2.5859l-27.32-15.773-37.5 64.953 38.109 22.004c-2.6055 13.555-2.6055 27.484 0 41.039l-38.109 22.004zm111.38-164.73c14.953-0.19141 29.371 5.5625 40.078 16 10.711 10.438 16.832 24.703 17.023 39.656 0.19141 14.953-5.5625 29.371-16 40.078-10.441 10.711-24.703 16.832-39.656 17.023s-29.371-5.5625-40.078-16c-10.711-10.438-16.832-24.703-17.023-39.656s5.5625-29.371 16-40.078c10.438-10.711 24.703-16.832 39.656-17.023z" fill="#702af4"/>
 <path d="m881.25 487.5h37.5v37.5h-37.5z" fill="#702af4"/>
 <path d="m806.25 487.5h37.5v37.5h-37.5z" fill="#702af4"/>
 <path d="m731.25 487.5h37.5v37.5h-37.5z" fill="#702af4"/>
 <path d="m656.25 487.5h37.5v37.5h-37.5z" fill="#702af4"/>
 <path d="m656.25 412.5h37.5v37.5h-37.5z" fill="#702af4"/>
 <path d="m656.25 337.5h37.5v37.5h-37.5z" fill="#702af4"/>
 <path d="m581.25 337.5h37.5v37.5h-37.5z" fill="#702af4"/>
 <path d="m506.25 337.5h37.5v37.5h-37.5z" fill="#702af4"/>
</svg>
