<?xml version="1.0" encoding="UTF-8"?>
<svg version="1.1" xmlns="http://www.w3.org/2000/svg" width="16" height="16">
<path d="M0 0 C2.5 1.5 2.5 1.5 4 4 C4.791013 8.02098277 4.62153384 10.96411027 2.5 14.5 C-1.03588973 16.62153384 -3.97901723 16.791013 -8 16 C-10.5 14.5 -10.5 14.5 -12 12 C-12.791013 7.97901723 -12.62153384 5.03588973 -10.5 1.5 C-6.96411027 -0.62153384 -4.02098277 -0.791013 0 0 Z " fill="#6211BE" transform="translate(12,0)"/>
<path d="M0 0 C2.64 0 5.28 0 8 0 C8 1.98 8 3.96 8 6 C5.36 6 2.72 6 0 6 C0 4.02 0 2.04 0 0 Z " fill="#C6A9E7" transform="translate(4,5)"/>
</svg>
